<svg width="14" height="21" viewBox="0 0 14 21" fill="none" xmlns="http://www.w3.org/2000/svg">
<path d="M3.41712 20.5014C5.30324 20.5014 6.834 18.9706 6.834 17.0845V13.6676H3.41712C1.53101 13.6676 0.000244141 15.1984 0.000244141 17.0845C0.000244141 18.9706 1.53101 20.5014 3.41712 20.5014Z" fill="#0CCE84"/>
<path d="M0.000244141 10.2509C0.000244141 8.36475 1.53101 6.83398 3.41712 6.83398H6.834V13.6677H3.41712C1.53101 13.6677 0.000244141 12.137 0.000244141 10.2509Z" fill="#A459FF"/>
<path d="M0 3.41688C0 1.53076 1.53076 0 3.41688 0H6.83376V6.83376H3.41688C1.53076 6.83376 0 5.303 0 3.41688Z" fill="#F14E1E"/>
<path d="M13.6677 3.41688C13.6677 1.53076 12.137 0 10.2508 0H6.83397V6.83376H10.2508C12.137 6.83376 13.6677 5.303 13.6677 3.41688Z" fill="#FF7360"/>
<path d="M13.6675 10.2509C13.6675 12.137 12.1367 13.6677 10.2506 13.6677C8.3645 13.6677 6.83374 12.137 6.83374 10.2509C6.83374 8.36475 8.3645 6.83398 10.2506 6.83398C12.1367 6.83398 13.6675 8.36475 13.6675 10.2509Z" fill="#1BBBFF"/>
</svg>
