<svg width="929" height="114" viewBox="0 0 929 114" fill="none" xmlns="http://www.w3.org/2000/svg">
<path d="M4.94106 97.4116C4.37636 97.4116 3.76459 97.3175 3.10577 97.1293C2.54106 96.941 2.25871 96.4704 2.25871 95.7175C1.88224 92.3293 1.50577 88.141 1.1293 83.1528C0.846944 78.0704 0.61165 72.5646 0.423414 66.6351C0.23518 60.6116 0.0940031 54.494 -0.000114715 48.2822C-0.000114715 42.541 0.0469442 36.941 0.141062 31.4822C0.329297 25.9293 0.61165 20.8469 0.98812 16.2351C1.45871 11.5293 1.97636 7.52927 2.54106 4.23515C2.63518 3.67044 2.96459 3.24691 3.5293 2.96456C4.094 2.58809 4.61165 2.39985 5.08224 2.39985C7.62341 2.39985 10.1175 2.39985 12.5646 2.39985C15.1058 2.39985 17.5999 2.39985 20.0469 2.39985C20.894 2.39985 21.2705 3.01162 21.1764 4.23515C20.7999 7.24691 20.4705 10.8234 20.1881 14.9646C19.9058 19.0116 19.6234 23.2469 19.3411 27.6704C19.1528 32.094 18.9646 36.3293 18.7764 40.3763C18.7764 41.2234 18.8705 41.7881 19.0587 42.0704C19.2469 42.3528 19.8117 42.494 20.7528 42.494C25.3646 42.494 30.0234 42.494 34.7293 42.494C39.4352 42.494 44.094 42.494 48.7058 42.494C49.3646 42.494 49.8352 42.3999 50.1175 42.2116C50.3999 41.9293 50.5411 41.3175 50.5411 40.3763C50.4469 36.4234 50.2587 32.2351 49.9764 27.8116C49.694 23.3881 49.4117 19.1528 49.1293 15.1057C48.8469 10.9646 48.5175 7.34103 48.1411 4.23515C48.1411 3.01162 48.5175 2.39985 49.2705 2.39985C51.7175 2.39985 54.1646 2.39985 56.6117 2.39985C59.1528 2.39985 61.6469 2.39985 64.094 2.39985C64.6587 2.39985 65.2234 2.58809 65.7881 2.96456C66.3528 3.24691 66.6822 3.67044 66.7764 4.23515C67.4352 7.52927 67.9528 11.5763 68.3293 16.3763C68.7058 21.0822 68.9881 26.2116 69.1764 31.7646C69.3646 37.2234 69.4117 42.8234 69.3175 48.5646C69.3175 54.6822 69.1764 60.7528 68.894 66.7763C68.7058 72.7057 68.4234 78.1646 68.047 83.1528C67.7646 88.141 67.4352 92.3293 67.0587 95.7175C66.9646 96.4704 66.6352 96.941 66.0705 97.1293C65.5058 97.3175 64.894 97.4116 64.2352 97.4116C61.7881 97.4116 59.294 97.4116 56.7528 97.4116C54.3058 97.4116 51.8587 97.4116 49.4117 97.4116C48.7528 97.4116 48.4705 96.8469 48.5646 95.7175C48.8469 93.0822 49.0822 90.2587 49.2705 87.2469C49.5528 84.141 49.7881 80.941 49.9764 77.6469C50.2587 74.3528 50.4469 71.0587 50.5411 67.7646C50.6352 64.3763 50.6822 61.1763 50.6822 58.1646C50.6822 57.5057 50.5411 57.0822 50.2587 56.894C50.0705 56.7057 49.5999 56.6116 48.8469 56.6116C44.1411 56.6116 39.3881 56.6116 34.5881 56.6116C29.8822 56.6116 25.1764 56.6116 20.4705 56.6116C19.7175 56.6116 19.1999 56.7057 18.9175 56.894C18.7293 57.0822 18.6352 57.5057 18.6352 58.1646C18.6352 61.2704 18.6822 64.4704 18.7764 67.7646C18.9646 71.0587 19.1058 74.3528 19.1999 77.6469C19.3881 80.941 19.6234 84.141 19.9058 87.2469C20.1881 90.2587 20.4705 93.0822 20.7528 95.7175C20.8469 96.8469 20.5646 97.4116 19.9058 97.4116C17.4587 97.4116 14.9646 97.4116 12.4234 97.4116C9.97636 97.4116 7.48224 97.4116 4.94106 97.4116ZM115.529 12.5646C115.529 15.3881 114.917 17.5528 113.693 19.0587C112.47 20.4704 109.929 21.1763 106.07 21.1763C102.399 21.1763 99.858 20.4704 98.4462 19.0587C97.1286 17.5528 96.4697 15.3881 96.4697 12.5646C96.4697 10.1175 97.1286 8.14103 98.4462 6.63515C99.858 5.03515 102.399 4.23515 106.07 4.23515C110.117 4.23515 112.705 5.03515 113.834 6.63515C114.964 8.14103 115.529 10.1175 115.529 12.5646ZM115.105 95.7175C115.105 96.8469 114.493 97.4116 113.27 97.4116H98.7286C97.5991 97.4116 97.0344 96.8469 97.0344 95.7175V32.4704C97.0344 31.341 97.5991 30.7763 98.7286 30.7763H113.27C114.493 30.7763 115.105 31.341 115.105 32.4704V95.7175ZM202.13 92.4704C202.13 94.541 201.66 96.8469 200.719 99.3881C199.872 102.023 198.883 104.518 197.754 106.87C196.625 109.223 195.589 111.153 194.648 112.659C194.272 113.318 193.707 113.647 192.954 113.647C191.919 113.647 190.836 113.647 189.707 113.647C188.577 113.647 187.401 113.647 186.177 113.647C185.707 113.647 185.425 113.506 185.33 113.223C185.236 112.941 185.425 112.329 185.895 111.388C186.272 110.635 186.695 109.506 187.166 108C187.73 106.494 188.295 104.941 188.86 103.341C189.425 101.741 189.848 100.423 190.13 99.3881C188.248 99.1057 186.883 98.2587 186.036 96.8469C185.189 95.4352 184.766 93.9763 184.766 92.4704C184.766 90.3057 185.425 88.5175 186.742 87.1057C188.06 85.5999 190.319 84.8469 193.519 84.8469C195.966 84.8469 197.989 85.3646 199.589 86.3999C201.283 87.341 202.13 89.3646 202.13 92.4704ZM293.946 95.7175C293.946 96.8469 293.287 97.4116 291.969 97.4116H277.287C275.969 97.4116 275.311 96.8469 275.311 95.7175V4.23515C275.311 3.01162 275.969 2.39985 277.287 2.39985H291.969C293.287 2.39985 293.946 3.01162 293.946 4.23515V95.7175ZM322 32.3293C321.436 32.3293 321.012 31.9999 320.73 31.341C320.541 30.6822 320.683 29.6469 321.153 28.2352L329.906 1.97632C330.377 1.3175 330.753 0.846912 331.036 0.564557C331.412 0.188086 332.024 -0.000149832 332.871 -0.000149832H344.447C345.577 -0.000149832 346.141 0.470441 346.141 1.41162C346.236 2.25868 345.953 3.52927 345.294 5.22338L334.847 30.7763C334.471 31.341 334.094 31.7646 333.718 32.0469C333.436 32.2351 332.871 32.3293 332.024 32.3293H322ZM374.656 97.4116C373.15 97.4116 372.397 96.6116 372.397 95.0116C372.397 88.2352 372.491 80.7999 372.679 72.7057C372.962 64.5175 373.338 56.2822 373.809 47.9999C374.373 39.6234 374.985 31.6704 375.644 24.141C376.303 16.5175 377.056 9.88221 377.903 4.23515C378.091 3.57632 378.279 3.10573 378.468 2.82339C378.75 2.54103 379.22 2.39985 379.879 2.39985H388.773C389.62 2.39985 390.232 2.49397 390.609 2.68221C390.985 2.87044 391.362 3.24691 391.738 3.81162L413.056 39.6704C413.338 40.141 413.668 40.3763 414.044 40.3763C414.515 40.3763 414.891 40.141 415.173 39.6704L436.632 3.95279C437.103 3.19985 437.479 2.77633 437.762 2.68221C438.138 2.49397 438.75 2.39985 439.597 2.39985H448.35C449.385 2.39985 449.997 3.05868 450.185 4.37632C450.938 10.0234 451.644 16.6116 452.303 24.141C453.056 31.6704 453.668 39.6234 454.138 47.9999C454.703 56.2822 455.126 64.4704 455.409 72.5646C455.785 80.6587 455.973 88.0469 455.973 94.7293C455.973 95.7646 455.785 96.4704 455.409 96.8469C455.126 97.2234 454.42 97.4116 453.291 97.4116H439.315C438.091 97.4116 437.479 96.7057 437.479 95.294C437.479 91.9999 437.432 88.5646 437.338 84.9881C437.244 81.4116 437.15 77.694 437.056 73.8351C436.962 69.9763 436.773 66.1646 436.491 62.3999C436.303 58.541 436.115 54.7763 435.926 51.1057C435.738 47.341 435.503 43.8116 435.22 40.5175C435.126 40.0469 434.891 39.8116 434.515 39.8116C434.232 39.8116 433.95 40.0469 433.668 40.5175L418.138 65.3646C417.668 65.9293 417.103 66.2116 416.444 66.2116H411.503C410.75 66.2116 410.138 65.8351 409.668 65.0822L394.703 41.0822C394.326 40.3293 393.95 40.0469 393.573 40.2351C393.291 40.4234 393.15 40.7057 393.15 41.0822C392.773 45.2234 392.444 49.2704 392.162 53.2234C391.879 57.1763 391.644 61.2704 391.456 65.5057C391.268 69.741 391.126 74.3528 391.032 79.341C391.032 84.3293 391.032 89.9763 391.032 96.2822C391.032 97.0352 390.656 97.4116 389.903 97.4116H374.656ZM559.661 71.8587C559.661 78.3528 558.955 83.4822 557.543 87.2469C556.226 90.9175 554.014 93.5528 550.908 95.1528C547.802 96.6587 543.614 97.4116 538.343 97.4116H527.755C526.908 97.4116 525.873 97.2704 524.649 96.9881C523.52 96.6116 522.955 95.9528 522.955 95.0116V84.5646C522.955 83.4351 523.379 82.9175 524.226 83.0116C525.449 83.1057 527.049 83.1999 529.026 83.294C531.002 83.3881 532.555 83.4351 533.684 83.4351C536.508 83.4351 538.39 82.7763 539.332 81.4587C540.367 80.0469 540.932 77.3175 541.026 73.2704V4.23515C541.026 3.01162 541.637 2.39985 542.861 2.39985H557.826C558.202 2.39985 558.579 2.58809 558.955 2.96456C559.426 3.24691 559.661 3.67044 559.661 4.23515V71.8587ZM586.647 50.2587C586.647 39.9999 587.729 31.2469 589.894 23.9999C592.152 16.7528 596.105 11.2469 601.752 7.48221C607.494 3.62338 615.494 1.69397 625.752 1.69397C633.658 1.69397 640.2 2.77632 645.376 4.94103C650.552 7.10574 654.552 10.2587 657.376 14.3999C660.294 18.541 662.27 23.6234 663.305 29.6469C664.435 35.6704 665 42.541 665 50.2587C665 57.9763 664.435 64.8469 663.305 70.8704C662.27 76.7999 660.294 81.8352 657.376 85.9763C654.552 90.1175 650.552 93.2704 645.376 95.4352C640.2 97.5999 633.658 98.6822 625.752 98.6822C615.494 98.6822 607.494 96.7999 601.752 93.0352C596.105 89.1763 592.152 83.6704 589.894 76.5175C587.729 69.2704 586.647 60.5175 586.647 50.2587ZM605.988 50.2587C605.988 59.0116 606.694 65.7881 608.105 70.5881C609.517 75.294 611.635 78.5881 614.458 80.4704C617.282 82.3528 621 83.294 625.611 83.294C630.129 83.294 633.847 82.3999 636.764 80.6116C639.682 78.7293 641.894 75.3881 643.4 70.5881C645 65.7881 645.8 59.0116 645.8 50.2587C645.8 41.4116 645 34.5881 643.4 29.7881C641.894 24.894 639.682 21.5057 636.764 19.6234C633.847 17.741 630.082 16.7999 625.47 16.7999C620.952 16.7999 617.235 17.7881 614.317 19.7646C611.494 21.6469 609.376 24.9881 607.964 29.7881C606.647 34.5881 605.988 41.4116 605.988 50.2587ZM745.004 58.4469C745.286 58.8234 745.662 59.0116 746.133 59.0116C746.604 59.0116 746.839 58.7293 746.839 58.1646C746.933 55.2469 746.933 52.141 746.839 48.8469C746.839 45.5528 746.792 42.1175 746.698 38.541C746.698 34.8704 746.604 31.1057 746.415 27.2469C746.321 23.3881 746.086 19.5763 745.709 15.8116C745.427 11.9528 745.051 8.14103 744.58 4.37632C744.486 3.05868 744.815 2.39985 745.568 2.39985H760.674C761.239 2.39985 761.757 2.58809 762.227 2.96456C762.792 3.24691 763.121 3.67044 763.215 4.23515C763.874 7.7175 764.392 11.9528 764.768 16.941C765.239 21.8351 765.521 27.1999 765.615 33.0351C765.804 38.7763 765.851 44.6587 765.757 50.6822C765.662 56.6116 765.474 62.4469 765.192 68.1881C765.004 73.8352 764.721 79.0587 764.345 83.8587C764.062 88.5646 763.733 92.5175 763.357 95.7175C763.262 96.4704 762.933 96.941 762.368 97.1293C761.898 97.3175 761.333 97.4116 760.674 97.4116H751.074C750.415 97.4116 749.615 96.6587 748.674 95.1528L712.251 40.6587C712.157 40.2822 711.921 40.094 711.545 40.094C711.168 40.094 710.98 40.3293 710.98 40.7999C710.98 45.8822 710.98 50.6822 710.98 55.1999C710.98 59.6234 710.98 63.8116 710.98 67.7646C711.074 71.6234 711.215 75.2469 711.404 78.6352C711.592 81.9293 711.78 85.0352 711.968 87.9528C712.157 90.7763 712.439 93.3175 712.815 95.5763C712.909 96.7999 712.58 97.4116 711.827 97.4116H697.004C696.439 97.4116 695.827 97.3175 695.168 97.1293C694.604 96.941 694.274 96.4704 694.18 95.7175C693.804 92.5175 693.474 88.5646 693.192 83.8587C692.909 79.0587 692.674 73.8352 692.486 68.1881C692.298 62.4469 692.157 56.5646 692.062 50.541C692.062 44.5175 692.109 38.6351 692.204 32.894C692.392 27.0587 692.674 21.694 693.051 16.7999C693.427 11.8116 693.945 7.62339 694.604 4.23515C694.792 3.67044 695.121 3.24691 695.592 2.96456C696.157 2.58809 696.674 2.39985 697.145 2.39985H706.321C707.168 2.39985 707.78 2.82338 708.157 3.67044L745.004 58.4469ZM797.888 97.4116C796.665 97.4116 796.053 96.8469 796.053 95.7175V4.23515C796.053 3.01162 796.665 2.39985 797.888 2.39985H845.041C846.171 2.39985 846.83 2.49397 847.018 2.68221C847.206 2.87044 847.3 3.48221 847.3 4.5175V14.3999C847.3 15.5293 847.159 16.2351 846.877 16.5175C846.594 16.7057 845.983 16.7999 845.041 16.7999H815.959C815.3 16.7999 814.924 16.8469 814.83 16.941C814.736 17.0351 814.688 17.3646 814.688 17.9293V41.2234C814.688 41.7881 814.736 42.1646 814.83 42.3528C815.018 42.4469 815.347 42.494 815.818 42.494H838.688C839.912 42.494 840.618 42.6351 840.806 42.9175C840.994 43.1057 841.088 43.8587 841.088 45.1763V54.0704C841.088 55.294 840.947 56.0469 840.665 56.3293C840.477 56.5175 839.818 56.6116 838.688 56.6116H815.818C815.347 56.6116 815.018 56.6587 814.83 56.7528C814.736 56.8469 814.688 57.1293 814.688 57.5999V81.741C814.688 82.3057 814.736 82.6822 814.83 82.8704C814.924 82.9646 815.253 83.0116 815.818 83.0116H844.759C846.077 83.0116 846.83 83.1528 847.018 83.4351C847.206 83.7175 847.3 84.4704 847.3 85.694V94.7293C847.3 96.0469 847.159 96.8469 846.877 97.1293C846.594 97.3175 845.841 97.4116 844.618 97.4116H797.888ZM870.605 92.1881V80.6116C870.605 79.9528 870.794 79.6234 871.17 79.6234C871.641 79.6234 872.394 79.8116 873.429 80.1881C875.311 80.7528 877.523 81.3175 880.064 81.8822C882.605 82.3528 885.1 82.7293 887.547 83.0116C889.994 83.294 891.97 83.4351 893.476 83.4351C898.37 83.4351 902.088 82.0704 904.629 79.341C907.264 76.6116 908.582 73.4587 908.582 69.8822C908.582 66.2116 907.264 63.2469 904.629 60.9881C902.088 58.7293 898.652 56.9881 894.323 55.7646C891.97 55.1999 889.288 54.3999 886.276 53.3646C883.358 52.3293 880.488 50.8704 877.664 48.9881C874.935 47.1057 872.676 44.5175 870.888 41.2234C869.1 37.8351 868.205 33.5528 868.205 28.3763C868.205 21.9763 869.664 16.8469 872.582 12.9881C875.594 9.12926 879.452 6.30573 884.158 4.5175C888.958 2.63515 894.041 1.69397 899.405 1.69397C901.476 1.69397 903.735 1.92927 906.182 2.39985C908.723 2.77632 911.217 3.29397 913.664 3.95279C916.111 4.61162 918.276 5.36456 920.158 6.21162C920.911 6.39985 921.382 6.6822 921.57 7.05868C921.758 7.34103 921.852 7.76456 921.852 8.32926V18.9175C921.852 21.4587 920.3 21.8822 917.194 20.1881C915.217 19.0587 912.817 18.0704 909.994 17.2234C907.264 16.2822 904.205 15.8116 900.817 15.8116C896.676 15.8116 893.335 16.894 890.794 19.0587C888.252 21.2234 886.982 23.8116 886.982 26.8234C886.982 29.741 887.782 32.094 889.382 33.8822C890.982 35.6704 893.052 37.0822 895.594 38.1175C898.135 39.1528 900.77 39.9999 903.5 40.6587C906.229 41.3175 908.723 42.0704 910.982 42.9175C914.747 44.141 917.852 45.7881 920.3 47.8587C922.841 49.8351 924.77 52.4704 926.088 55.7646C927.405 59.0587 928.064 63.2469 928.064 68.3293C928.064 75.1999 926.558 80.894 923.547 85.4116C920.629 89.8352 916.582 93.1293 911.405 95.294C906.229 97.4587 900.347 98.541 893.758 98.541C890.841 98.541 887.547 98.2587 883.876 97.694C880.205 97.1293 876.864 96.3293 873.852 95.294C872.629 94.9175 871.782 94.541 871.311 94.1646C870.841 93.694 870.605 93.0352 870.605 92.1881Z" fill="black"/>
</svg>
