<svg width="424" height="363" viewBox="0 0 424 363" fill="none" xmlns="http://www.w3.org/2000/svg">
<path d="M388.155 253.03C407.539 194.625 375.906 131.563 317.501 112.179C259.095 92.7945 196.034 124.427 176.65 182.833C157.265 241.238 188.898 304.3 247.304 323.684C305.709 343.068 368.77 311.436 388.155 253.03Z" fill="#87C0D7"/>
<path d="M311.089 141.075C311.089 141.075 329.462 40.2686 333.704 38.1846C337.944 36.0986 334.608 38.0536 334.608 38.0536C334.608 38.0536 400.491 109.857 402.877 117.92L310.919 141.925" fill="#F6BA4E"/>
<path d="M324.311 129.798C329.778 104.109 336.606 78.6356 339.208 52.4336C339.335 51.1506 337.334 51.1626 337.208 52.4336C334.624 78.4536 327.811 103.756 322.384 129.266C322.115 130.524 324.043 131.059 324.311 129.798Z" fill="#434040"/>
<path d="M388.35 111.581C371.544 92.4126 354.147 73.7066 339.538 52.7526C338.807 51.7036 337.071 52.7016 337.811 53.7626C352.517 74.8566 370.016 93.6986 386.935 112.995C387.787 113.966 389.197 112.546 388.35 111.581Z" fill="#434040"/>
<path d="M323.697 130.816C345.167 125.212 366.636 119.606 388.105 114.002C389.352 113.676 388.823 111.747 387.574 112.073C366.104 117.677 344.635 123.282 323.166 128.887C321.918 129.213 322.448 131.142 323.697 130.816Z" fill="#434040"/>
<path d="M312.688 142.215C342.693 134.383 372.698 126.55 402.702 118.717C403.949 118.391 403.42 116.462 402.171 116.788C372.166 124.622 342.162 132.454 312.157 140.287C310.91 140.612 311.439 142.541 312.688 142.215Z" fill="#434040"/>
<path d="M338.417 39.0766C335.174 34.1406 332.037 37.7406 330.789 42.0976C327.56 53.3696 325.473 64.7676 323.802 76.3556C322.247 87.1436 318.808 97.4496 317.027 108.182C315.209 119.14 311.83 129.831 310.422 140.844C310.259 142.121 312.261 142.105 312.422 140.844C313.579 131.793 316.526 123.121 318.176 114.164C319.728 105.743 321.436 97.5836 323.485 89.2626C325.503 81.0686 326.179 72.6016 327.623 64.3016C328.368 60.0196 329.352 55.7806 330.378 51.5576C330.96 49.1606 331.598 46.7756 332.236 44.3926C332.508 43.3786 334.049 36.0646 336.691 40.0856C337.396 41.1596 339.128 40.1586 338.417 39.0766Z" fill="#434040"/>
<path d="M336.383 39.6796C343.316 46.6716 349.336 54.0756 355.159 61.9976C357.681 65.4276 360.644 68.5346 363.379 71.7926C366.575 75.6026 369.244 79.8036 372.132 83.8436C376.965 90.6026 383.496 95.8466 388.571 102.429C390.756 105.263 393.117 107.864 395.843 110.186C397.232 111.369 402.688 115.06 400.975 117.282C400.187 118.303 401.926 119.298 402.701 118.292C405.405 114.785 399.539 110.659 397.257 108.772C393.665 105.804 390.982 102.177 388.1 98.5526C385.024 94.6836 381.348 91.4076 377.935 87.8496C374.126 83.8776 371.266 79.0366 368.078 74.5776C365.31 70.7056 362.052 67.2076 358.975 63.5856C355.452 59.4366 352.548 54.7866 349.101 50.5646C345.578 46.2516 341.715 42.2166 337.797 38.2646C336.888 37.3476 335.474 38.7626 336.383 39.6796Z" fill="#434040"/>
<path d="M350.908 105.577C350.946 102.32 349.216 99.2226 347.914 96.3206C345.347 90.5956 343.783 84.5306 341.888 78.5746C341.1 75.7686 341.91 74.5466 344.315 74.9076C346.51 74.7346 346.722 74.5156 347.029 77.0446C347.374 79.8836 347.61 82.5886 348.238 85.3986C349.667 91.7956 351.307 98.1606 352.962 104.503C353.194 104.093 353.427 103.683 353.66 103.273C353.521 103.327 350.458 104.404 350.665 104.639C350.598 105.162 350.53 105.686 350.463 106.209C350.514 106.172 350.566 106.134 350.616 106.097C351.645 105.344 350.649 103.607 349.606 104.37C349.555 104.407 349.504 104.445 349.453 104.482C348.915 104.877 348.794 105.534 349.251 106.053C350.303 107.246 353.133 105.615 354.191 105.201C354.704 105.001 355.038 104.54 354.889 103.971C353.512 98.6866 352.267 93.3756 350.96 88.0756C349.791 83.3346 349.574 78.4896 348.463 73.7756C348.354 73.3086 347.935 73.0906 347.499 73.0416C341.324 72.3456 338.334 74.0026 340.343 80.3116C341.93 85.3006 343.393 90.2616 345.281 95.1556C346.57 98.4996 348.952 101.902 348.909 105.578C348.892 106.867 350.893 106.866 350.908 105.577Z" fill="#434040"/>
<path d="M353.482 109.286C346.552 110.377 350.465 121.427 356.863 118.366C363.278 115.299 355.894 105.557 351.884 110.136C351.038 111.102 352.447 112.522 353.298 111.55C355.285 109.281 359.445 114.64 356.143 116.501C352.439 118.588 349.615 111.907 354.013 111.215C355.285 111.014 354.743 109.087 353.482 109.286Z" fill="#434040"/>
<path d="M351.297 111.469C350.381 113.083 351.287 115.188 352.689 116.212C354.262 117.362 356.328 116.666 356.941 114.827C357.449 113.304 356.402 111.123 354.864 110.632C353.138 110.081 351.441 111.793 351.534 113.499C351.618 115.038 353.173 115.898 354.569 115.901C356.281 115.905 357.238 114.492 357.078 112.897C356.89 111.018 355.108 110.436 353.712 111.568C352.074 112.895 353.037 115.02 354.387 116.055C355.801 117.14 358.058 116.481 358.18 114.574C358.301 112.685 356.144 111.88 354.631 112.616C351.574 114.103 354.756 119.525 357.51 117.283C358.685 116.328 359.258 114.461 357.896 113.399C356.799 112.545 355.003 112.467 354.129 113.687C353.183 115.006 354.035 117.208 355.657 117.423C357.031 117.605 358.373 116.211 358.49 114.914C358.589 113.828 357.722 113.087 356.715 112.947C355.541 112.783 354.637 114.295 354.994 115.348C355.296 116.238 356.355 116.758 357.258 116.527C358.444 116.223 358.735 115.028 358.374 113.977C358.221 113.528 357.881 113.277 357.41 113.243C356.055 113.145 355.135 113.954 354.579 115.124C354.032 116.273 355.656 117.267 356.306 116.134C357.452 114.134 354.671 113.293 353.19 113.9C352.621 114.133 352.214 114.771 352.592 115.369C352.711 115.557 352.854 115.64 352.988 115.775C353.897 116.692 355.31 115.278 354.402 114.361C354.236 114.193 353.988 113.836 354.319 114.36C354.12 114.85 353.921 115.339 353.721 115.829C353.897 115.757 354.041 115.727 354.231 115.714C354.36 115.71 354.489 115.712 354.617 115.718C354.991 115.861 354.978 115.663 354.579 115.125C355.154 115.461 355.73 115.797 356.306 116.134C356.568 115.585 356.746 115.196 357.41 115.244C357.089 114.999 356.767 114.755 356.446 114.51C356.533 114.766 356.484 114.88 356.656 114.666C356.803 114.483 356.92 114.601 356.813 114.579C356.703 114.556 356.82 114.517 356.887 114.715C356.97 114.96 356.912 114.851 357.155 114.62C356.831 114.706 356.507 114.791 356.182 114.877C356.484 114.919 356.594 115.079 356.511 114.832C356.475 114.725 356.423 114.978 356.365 115.052C356.241 115.21 356.08 115.366 355.889 115.431C355.812 115.458 355.921 115.57 355.818 115.31C355.44 114.362 356.702 114.799 356.709 115.09C356.715 115.361 356.262 115.864 356.018 115.799C355.696 115.714 355.425 115.136 355.388 114.841C355.337 114.431 355.666 114.168 356.113 114.358C356.402 114.481 355.959 114.602 355.805 114.561C355.205 114.402 354.636 113.721 354.977 113.135C355.097 112.93 355.398 112.955 355.142 112.915C355.019 112.895 355.01 112.764 355.072 112.96C355.126 113.132 355.114 113.333 355.112 113.51C355.105 114.2 353.556 113.942 353.524 113.357C353.501 112.927 353.967 112.369 354.385 112.614C354.889 112.909 355.129 113.766 355.01 114.297C354.692 115.718 352.361 113.645 353.022 112.48C353.662 111.355 351.934 110.348 351.297 111.469Z" fill="#434040"/>
<path d="M349.234 101.227C350.05 102.495 350.147 102.62 351.155 103.736C351.701 104.341 352.97 103.905 352.862 103.029C352.719 101.866 352.758 101.662 351.906 100.892C351.37 100.407 350.421 100.568 350.235 101.333C349.901 102.708 349.839 102.766 350.663 103.912C351.086 104.501 351.989 104.611 352.39 103.912C353.198 102.503 353.146 101.535 351.936 100.449C351.445 100.008 350.373 100.088 350.265 100.89C350.03 102.626 349.959 102.454 350.532 104.117C350.877 105.12 352.646 105.029 352.496 103.851C351.579 96.6726 349.008 89.8396 346.567 83.0596C346.193 82.0216 345.88 81.3166 345.414 80.3596C345.049 79.6106 344.821 75.3856 345.486 77.9366C346.056 80.1216 345.993 82.5226 346.096 84.7666C346.763 84.7666 347.429 84.7666 348.096 84.7666C347.793 81.9406 348.934 75.2376 344.94 74.7506C344.576 74.7066 344.273 74.9817 344.077 75.2457C343.11 76.5497 343.663 78.3056 344.027 79.7616C344.635 79.5046 345.245 79.2477 345.854 78.9917C346.166 76.9247 346.421 76.6467 346.622 78.1577C346.731 78.7197 346.82 79.2847 346.89 79.8537C347.161 81.8147 347.561 83.7606 347.936 85.7036C348.843 90.4166 349.988 95.0786 351.271 99.7016C351.828 99.3776 352.385 99.0537 352.942 98.7287C349.303 94.0447 348.894 87.7306 347.707 82.1227C347.018 78.8757 346.095 75.3437 342.92 73.7757C342.348 73.4927 341.63 73.7166 341.451 74.3736C340.458 78.0066 341.547 81.2816 342.783 84.7356C344.757 90.2456 346.411 95.8417 348.624 101.268C349.097 102.427 350.925 102.007 350.552 100.737C348.354 93.2466 346.63 85.6516 345.057 78.0096C344.414 78.1866 343.772 78.3636 343.129 78.5406C344.238 82.4356 345.136 86.3676 346.597 90.1526C347.056 91.3426 348.991 90.8266 348.525 89.6216C347.065 85.8366 346.168 81.9036 345.057 78.0096C344.702 76.7606 342.871 77.2866 343.129 78.5406C344.702 86.1836 346.425 93.7777 348.624 101.268C349.266 101.091 349.909 100.914 350.552 100.737C348.914 96.7196 347.507 92.6327 346.161 88.5107C344.775 84.2667 342.142 79.4277 343.379 74.9057C342.89 75.1047 342.4 75.3036 341.91 75.5036C346.132 77.5886 346.324 85.5177 347.132 89.5457C347.906 93.4137 349.097 97.0156 351.529 100.146C352.17 100.971 353.45 100.071 353.2 99.1727C351.758 93.9687 350.549 88.7227 349.528 83.4207C348.996 80.6597 348.982 77.3987 347.508 74.9287C346.775 73.7017 345.194 73.7306 344.103 74.3696C341.847 75.6906 343.359 78.3176 344.129 80.0026C344.615 81.0656 346.222 80.2947 345.956 79.2327C344.999 75.3987 345.711 78.3636 345.874 80.5486C345.979 81.9546 345.947 83.3666 346.098 84.7686C346.232 86.0226 348.158 86.0786 348.098 84.7686C348.052 83.7646 347.533 70.8757 343.636 74.8107C341.47 76.9987 342.383 78.9196 343.689 81.3716C347.143 87.8576 349.573 96.6126 350.498 103.853C351.152 103.765 351.808 103.676 352.462 103.587C352.373 102.865 352.284 102.144 352.194 101.422C351.637 101.57 351.08 101.716 350.523 101.863C350.57 102.21 350.617 102.556 350.665 102.903C351.24 102.903 351.816 102.903 352.392 102.903C352.317 102.557 352.242 102.212 352.165 101.865C351.608 102.012 351.051 102.159 350.494 102.306C350.617 102.547 350.741 102.788 350.864 103.029C351.433 102.793 352.002 102.558 352.571 102.322C352.035 101.62 351.499 100.919 350.963 100.217C350.265 99.1376 348.533 100.14 349.234 101.227Z" fill="#434040"/>
<path d="M55.0586 23.8192L62.7671 24.2232L60.5582 66.3715C60.3302 70.7231 59.1008 74.5547 56.8702 77.8663C54.6613 81.1583 51.6507 83.6914 47.8383 85.4655C44.027 87.219 39.6244 87.9649 34.6304 87.7032C29.6364 87.4414 25.3359 86.2394 21.7287 84.0972C18.1227 81.9342 15.383 79.0998 13.5096 75.5939C11.658 72.0683 10.8463 68.1298 11.0743 63.7782L13.2832 21.6298L20.9918 22.0338L18.8155 63.5605C18.6526 66.6688 19.1914 69.471 20.432 71.9671C21.6737 74.4426 23.5222 76.4407 25.9775 77.9615C28.4546 79.4628 31.4649 80.3062 35.0083 80.4919C38.5518 80.6776 41.6337 80.1535 44.2542 78.9194C46.8757 77.6646 48.923 75.8706 50.3959 73.5375C51.8906 71.1847 52.7194 68.4542 52.8823 65.3459L55.0586 23.8192ZM128.639 27.6754L125.303 91.3331L117.843 90.9421L85.7744 39.143L85.1527 39.1104L82.5333 89.0916L74.8247 88.6876L78.1609 25.0299L85.6208 25.4209L117.808 77.3509L118.429 77.3835L121.055 27.2779L128.639 27.6754ZM160.373 93.171L140.728 92.1414L144.064 28.4838L164.579 29.5589C170.754 29.8825 175.971 31.4339 180.231 34.2129C184.491 36.9712 187.668 40.7843 189.761 45.6524C191.855 50.4997 192.729 56.2181 192.384 62.8077C192.036 69.4387 190.556 75.0857 187.943 79.7486C185.331 84.3909 181.699 87.8784 177.047 90.2111C172.396 92.5232 166.838 93.5098 160.373 93.171ZM148.795 85.7072L160.234 86.3067C165.497 86.5825 169.912 85.7957 173.479 83.9464C177.046 82.097 179.777 79.3415 181.673 75.6799C183.569 72.0182 184.653 67.5972 184.924 62.4167C185.193 57.2777 184.586 52.8096 183.102 49.0124C181.619 45.1945 179.261 42.2035 176.029 40.0393C172.799 37.8545 168.697 36.6317 163.723 36.3711L151.414 35.726L148.795 85.7072ZM203.64 95.4385L206.976 31.7808L245.394 33.7943L245.036 40.6325L214.326 39.0231L213.199 60.5324L241.919 62.0376L241.561 68.8758L212.841 67.3706L211.707 89.0043L242.914 90.6398L242.556 97.478L203.64 95.4385ZM255.952 98.1801L259.288 34.5224L280.798 35.6497C285.771 35.9103 289.809 36.9739 292.911 38.8403C296.014 40.686 298.255 43.1203 299.634 46.1432C301.014 49.166 301.605 52.5528 301.408 56.3035C301.212 60.0541 300.271 63.3398 298.585 66.1605C296.9 68.9812 294.428 71.1374 291.171 72.629C287.915 74.0998 283.821 74.706 278.889 74.4476L261.483 73.5354L261.848 66.5728L279.005 67.472C282.404 67.6501 285.165 67.2961 287.289 66.4101C289.434 65.5251 291.021 64.1953 292.049 62.4206C293.099 60.6263 293.691 58.4548 293.824 55.906C293.958 53.3572 293.598 51.1046 292.745 49.1483C291.891 47.1919 290.445 45.6408 288.407 44.495C286.369 43.3285 283.631 42.6551 280.191 42.4749L266.639 41.7646L263.661 98.5841L255.952 98.1801ZM287.415 71.1542L301.582 100.571L292.63 100.102L278.712 70.6981L287.415 71.1542Z" fill="#333333"/>
<path d="M31.987 103.693L28.9007 103.531C28.7647 102.634 28.4861 101.837 28.0651 101.141C27.6523 100.446 27.1343 99.8529 26.5111 99.3627C25.8966 98.8646 25.2055 98.479 24.4378 98.2058C23.6701 97.9326 22.8631 97.7738 22.0169 97.7295C20.4738 97.6486 19.0554 97.9653 17.7617 98.6795C16.4764 99.3942 15.4247 100.491 14.6068 101.971C13.7971 103.451 13.3345 105.294 13.2188 107.501C13.1031 109.708 13.3706 111.59 14.0211 113.146C14.6799 114.703 15.6111 115.904 16.8147 116.749C18.0266 117.595 19.4041 118.058 20.9473 118.139C21.7935 118.183 22.6127 118.11 23.4047 117.918C24.1968 117.727 24.9241 117.42 25.5869 116.997C26.2584 116.566 26.8357 116.027 27.3189 115.378C27.8109 114.722 28.1712 113.958 28.3998 113.089L31.4861 113.25C31.1855 114.541 30.7013 115.684 30.0335 116.681C29.3656 117.677 28.5565 118.513 27.606 119.187C26.656 119.852 25.6029 120.342 24.4467 120.656C23.2989 120.97 22.0819 121.093 20.796 121.026C18.6223 120.912 16.717 120.28 15.0802 119.129C13.4434 117.979 12.1909 116.399 11.3229 114.39C10.4548 112.381 10.0912 110.033 10.2321 107.345C10.3729 104.657 10.98 102.359 12.0533 100.452C13.1266 98.5447 14.5374 97.1046 16.2855 96.1313C18.0336 95.1581 19.9945 94.7284 22.1682 94.8423C23.4542 94.9097 24.6515 95.1597 25.7603 95.5921C26.8773 96.025 27.8732 96.6263 28.748 97.3959C29.6232 98.1572 30.3409 99.0684 30.9009 100.129C31.4613 101.182 31.8234 102.37 31.987 103.693ZM58.2282 109.86C58.0873 112.548 57.4803 114.846 56.4069 116.753C55.3337 118.66 53.9229 120.1 52.1748 121.073C50.4267 122.046 48.4658 122.476 46.2921 122.362C44.1184 122.248 42.2132 121.616 40.5763 120.465C38.9395 119.315 37.687 117.735 36.819 115.726C35.9509 113.717 35.5873 111.369 35.7282 108.681C35.869 105.993 36.4761 103.695 37.5494 101.788C38.6227 99.8809 40.0335 98.4408 41.7816 97.4675C43.5297 96.4943 45.4906 96.0646 47.6643 96.1785C49.838 96.2924 51.7432 96.9247 53.3801 98.0754C55.0169 99.226 56.2693 100.806 57.1374 102.815C58.0055 104.823 58.3691 107.172 58.2282 109.86ZM55.2415 109.703C55.3571 107.497 55.0856 105.615 54.4267 104.058C53.7762 102.501 52.845 101.3 51.6331 100.455C50.4295 99.6095 49.0561 99.1466 47.513 99.0657C45.9699 98.9848 44.5515 99.3015 43.2578 100.016C41.9725 100.73 40.9208 101.827 40.1029 103.307C39.2932 104.787 38.8306 106.63 38.7149 108.837C38.5992 111.044 38.8667 112.926 39.5172 114.482C40.176 116.039 41.1072 117.24 42.3108 118.085C43.5227 118.931 44.9002 119.394 46.4434 119.475C47.9865 119.556 49.4008 119.239 50.6861 118.524C51.9798 117.81 53.0314 116.713 53.8411 115.233C54.659 113.753 55.1258 111.91 55.2415 109.703ZM84.2957 98.4477L82.96 123.934L79.9733 123.778L67.1337 103.039L66.8848 103.026L65.8361 123.037L62.7498 122.875L64.0855 97.3885L67.0722 97.5451L79.959 118.336L80.2079 118.349L81.2592 98.2886L84.2957 98.4477ZM104.076 105.874C103.992 104.605 103.438 103.594 102.413 102.841C101.387 102.089 100.103 101.672 98.5597 101.591C97.4314 101.532 96.4345 101.663 95.5692 101.984C94.7121 102.305 94.0304 102.772 93.524 103.386C93.0259 104.001 92.7555 104.715 92.7129 105.528C92.6773 106.208 92.8084 106.801 93.1063 107.308C93.413 107.806 93.815 108.231 94.3124 108.581C94.8103 108.924 95.3359 109.213 95.8891 109.45C96.4429 109.679 96.9529 109.868 97.4193 110.017L99.9713 110.85C100.626 111.059 101.352 111.338 102.149 111.688C102.954 112.038 103.716 112.498 104.435 113.068C105.162 113.63 105.749 114.335 106.196 115.182C106.642 116.029 106.834 117.049 106.772 118.244C106.699 119.621 106.273 120.847 105.493 121.921C104.721 122.995 103.63 123.824 102.218 124.407C100.815 124.991 99.1344 125.231 97.1764 125.129C95.3512 125.033 93.7861 124.656 92.4813 123.997C91.1847 123.338 90.1824 122.462 89.4743 121.368C88.7746 120.275 88.4114 119.029 88.3849 117.63L91.5708 117.797C91.6033 118.764 91.8851 119.577 92.4162 120.237C92.9561 120.889 93.6535 121.392 94.5086 121.744C95.3723 122.089 96.3103 122.288 97.3225 122.341C98.5006 122.403 99.5684 122.268 100.526 121.935C101.484 121.594 102.255 121.094 102.838 120.434C103.422 119.766 103.739 118.967 103.787 118.038C103.832 117.192 103.631 116.491 103.186 115.935C102.741 115.379 102.142 114.915 101.388 114.543C100.633 114.17 99.8147 113.836 98.9318 113.541L95.8427 112.48C93.8815 111.803 92.348 110.904 91.2422 109.781C90.1363 108.658 89.6284 107.238 89.7184 105.52C89.7932 104.093 90.2442 102.869 91.0714 101.848C91.9074 100.818 92.9962 100.043 94.3379 99.5231C95.6884 98.9948 97.1766 98.7733 98.8027 98.8586C100.445 98.9447 101.89 99.3157 103.137 99.9717C104.384 100.619 105.355 101.469 106.048 102.52C106.75 103.572 107.088 104.742 107.062 106.03L104.076 105.874ZM111.282 102.607L111.425 99.8695L130.54 100.871L130.397 103.609L122.382 103.189L121.19 125.938L118.104 125.776L119.296 103.027L111.282 102.607ZM133.968 126.608L135.303 101.121L143.915 101.572C145.906 101.677 147.523 102.102 148.765 102.85C150.007 103.589 150.905 104.563 151.457 105.774C152.009 106.984 152.246 108.34 152.167 109.841C152.088 111.343 151.712 112.659 151.037 113.788C150.362 114.917 149.373 115.781 148.068 116.378C146.765 116.967 145.126 117.209 143.151 117.106L136.182 116.741L136.328 113.953L143.198 114.313C144.558 114.384 145.664 114.243 146.514 113.888C147.373 113.534 148.008 113.001 148.42 112.291C148.84 111.572 149.077 110.703 149.131 109.682C149.184 108.662 149.04 107.76 148.698 106.977C148.357 106.193 147.778 105.572 146.962 105.114C146.146 104.647 145.049 104.377 143.672 104.305L138.246 104.02L137.054 126.769L133.968 126.608ZM146.565 115.787L152.237 127.565L148.653 127.377L143.08 115.605L146.565 115.787ZM174.445 103.172L177.532 103.334L176.647 120.209C176.556 121.951 176.064 123.485 175.171 124.811C174.286 126.129 173.081 127.143 171.554 127.854C170.028 128.556 168.266 128.854 166.266 128.75C164.267 128.645 162.545 128.164 161.101 127.306C159.657 126.44 158.56 125.305 157.81 123.901C157.069 122.49 156.744 120.913 156.835 119.171L157.72 102.296L160.806 102.457L159.934 119.084C159.869 120.328 160.085 121.45 160.582 122.449C161.079 123.44 161.819 124.24 162.802 124.849C163.794 125.45 164.999 125.788 166.418 125.862C167.836 125.937 169.07 125.727 170.119 125.233C171.169 124.73 171.989 124.012 172.578 123.078C173.177 122.136 173.509 121.043 173.574 119.798L174.445 103.172ZM203.786 112.696L200.7 112.535C200.564 111.637 200.285 110.841 199.864 110.145C199.452 109.449 198.934 108.856 198.31 108.366C197.696 107.868 197.005 107.483 196.237 107.209C195.469 106.936 194.662 106.777 193.816 106.733C192.273 106.652 190.855 106.969 189.561 107.683C188.276 108.398 187.224 109.495 186.406 110.974C185.596 112.454 185.134 114.298 185.018 116.505C184.902 118.712 185.17 120.593 185.82 122.15C186.479 123.707 187.41 124.908 188.614 125.753C189.826 126.598 191.203 127.062 192.747 127.142C193.593 127.187 194.412 127.113 195.204 126.922C195.996 126.73 196.723 126.423 197.386 126C198.058 125.57 198.635 125.03 199.118 124.382C199.61 123.725 199.97 122.962 200.199 122.092L203.285 122.254C202.985 123.544 202.501 124.688 201.833 125.684C201.165 126.681 200.356 127.516 199.405 128.19C198.455 128.856 197.402 129.346 196.246 129.659C195.098 129.974 193.881 130.097 192.595 130.03C190.422 129.916 188.516 129.283 186.879 128.133C185.243 126.982 183.99 125.402 183.122 123.394C182.254 121.385 181.89 119.036 182.031 116.348C182.172 113.66 182.779 111.363 183.853 109.455C184.926 107.548 186.337 106.108 188.085 105.135C189.833 104.162 191.794 103.732 193.967 103.846C195.253 103.913 196.451 104.163 197.56 104.596C198.677 105.029 199.672 105.63 200.547 106.4C201.422 107.161 202.14 108.072 202.7 109.133C203.261 110.186 203.623 111.373 203.786 112.696ZM207.654 107.658L207.797 104.92L226.912 105.922L226.769 108.66L218.754 108.24L217.562 130.989L214.476 130.827L215.668 108.078L207.654 107.658ZM234.762 106.333L233.426 131.82L230.34 131.658L231.675 106.172L234.762 106.333ZM261.786 120.528C261.645 123.216 261.038 125.514 259.965 127.421C258.892 129.328 257.481 130.768 255.733 131.741C253.985 132.714 252.024 133.144 249.85 133.03C247.677 132.916 245.771 132.284 244.134 131.133C242.498 129.983 241.245 128.403 240.377 126.394C239.509 124.385 239.145 122.037 239.286 119.349C239.427 116.661 240.034 114.363 241.108 112.456C242.181 110.549 243.592 109.109 245.34 108.136C247.088 107.162 249.049 106.733 251.222 106.847C253.396 106.96 255.301 107.593 256.938 108.743C258.575 109.894 259.827 111.474 260.696 113.483C261.564 115.491 261.927 117.84 261.786 120.528ZM258.8 120.371C258.915 118.165 258.644 116.283 257.985 114.726C257.334 113.169 256.403 111.968 255.191 111.123C253.988 110.278 252.614 109.815 251.071 109.734C249.528 109.653 248.11 109.97 246.816 110.684C245.531 111.398 244.479 112.495 243.661 113.975C242.851 115.455 242.389 117.298 242.273 119.505C242.157 121.712 242.425 123.594 243.075 125.15C243.734 126.707 244.665 127.908 245.869 128.753C247.081 129.599 248.458 130.062 250.002 130.143C251.545 130.224 252.959 129.907 254.244 129.192C255.538 128.478 256.59 127.381 257.399 125.901C258.217 124.422 258.684 122.578 258.8 120.371ZM287.854 109.116L286.518 134.602L283.531 134.446L270.692 113.707L270.443 113.694L269.394 133.705L266.308 133.543L267.644 108.057L270.63 108.213L283.517 129.004L283.766 129.017L284.817 108.957L287.854 109.116Z" fill="#333333"/>
<path d="M209.507 316.247C209.507 316.247 209.765 298.476 214.178 299.375C218.592 300.278 222.674 305.071 224.74 301.685C226.81 298.298 225.803 290.448 230.257 289.76C234.711 289.073 238.216 297.373 244.985 292.911C251.755 288.449 259.647 259.151 267.421 261.127C275.193 263.101 279.182 285.263 279.182 285.263C279.182 285.263 284.114 277.651 288.648 278.142C293.183 278.636 294.016 282.332 294.016 282.332C294.016 282.332 301.985 238.66 311.349 241.478C320.709 244.294 328.681 284.808 328.681 284.808C328.681 284.808 333.694 275.138 337.968 275.525C342.242 275.91 347.251 292.237 347.251 292.237C347.251 292.237 351.183 274.711 355.299 276.762C359.416 278.814 363.531 286.728 364.663 293.755C365.797 300.782 373.334 323.91 359.561 322.259C345.786 320.61 320.323 318.741 311.194 319.994C302.064 321.251 281.203 327.114 257.212 319.774C233.219 312.431 220.953 329.057 209.507 316.247Z" fill="#A67142"/>
<path d="M210.792 314.169C211.469 309.492 212.181 295.137 219.41 302.756C222.098 305.588 226.104 302.362 227.343 299.75C228.339 297.649 228.473 295.173 229.169 292.967C231.146 286.706 235.521 291.646 238.098 293.469C241.3 295.736 245.344 294.32 247.984 292.006C256.192 284.812 256.156 271.66 264.186 264.054C269.878 258.662 272.45 266.611 273.704 271.157C275.089 276.177 275.731 281.428 277.578 286.313C277.814 286.939 278.729 287.396 279.249 286.754C280.831 284.802 282.292 282.758 283.875 280.808C287.133 276.796 290.546 280.373 293.309 283.038C293.673 283.389 294.37 283.463 294.723 283.038C298.962 277.935 299.451 269.504 300.698 263.269C301.766 257.932 303.326 242.891 310.731 242.445C317.888 242.014 320.636 258.774 321.82 263.55C323.568 270.595 324.306 278.855 327.818 285.312C328.113 285.854 328.968 285.994 329.388 285.514C330.864 283.831 331.942 281.869 333.157 279.997C333.937 278.793 336.537 275.052 338.686 277.147C339.732 278.168 340.365 280.13 340.883 281.422C342.369 285.121 343.301 290.293 346.544 292.942C347.066 293.369 347.723 293.306 348.114 292.74C350.785 288.878 351.39 283.844 353.57 279.707C357.402 272.435 362.158 287.051 362.753 289.427C363.663 293.067 364.143 296.807 364.744 300.505C365.682 306.264 367.149 312.77 366.312 318.624C366.131 319.885 368.058 320.428 368.24 319.155C369.136 312.897 367.658 306.155 366.673 299.973C365.752 294.199 364.937 288.399 362.825 282.909C361.853 280.382 358.115 273.537 354.222 276.083C349.271 279.322 349.538 287.173 346.387 291.729C346.91 291.662 347.434 291.594 347.957 291.527C343.174 287.62 344.06 279.596 339.644 275.288C335.039 270.798 329.906 281.892 327.973 284.099C328.496 284.166 329.02 284.234 329.543 284.301C326.441 278.597 319.935 228.808 305.85 242.732C302.825 245.722 301.618 250.674 300.573 254.627C299.004 260.563 298.091 266.654 296.718 272.635C296.146 275.126 295.484 277.641 294.382 279.954C293.624 281.545 293.459 280.4 292.238 279.326C291.292 278.493 290.068 277.552 288.864 277.15C283.582 275.389 280.54 282.003 277.835 285.339C278.392 285.487 278.949 285.633 279.506 285.78C277.552 280.606 276.845 275.018 275.378 269.699C274.413 266.2 272.949 261.288 269.009 260.166C265.152 259.069 261.25 263.874 259.331 266.464C255.377 271.8 253.613 278.718 250.675 284.615C249.285 287.405 247.566 290.196 244.853 291.854C240.886 294.279 238.123 290.486 235.35 288.316C231.337 285.175 227.53 291.064 226.719 294.28C225.802 297.914 223.711 304.965 219.158 299.396C217.95 297.919 216.056 297.173 214.276 298.181C209.172 301.071 209.593 308.595 208.865 313.635C208.682 314.899 210.609 315.442 210.792 314.169Z" fill="#434040"/>
<path d="M208.543 314.06C211.614 326.091 222.528 322.291 231.439 319.434C239.964 316.7 248.001 317.979 256.43 320.572C265.229 323.277 272.732 325.293 282.028 324.847C291.821 324.378 301.453 322.129 311.175 320.993C321.8 319.752 331.297 321.607 341.662 323.613C349.106 325.053 368.683 325.988 369.132 314.34C369.182 313.05 367.182 313.055 367.132 314.34C366.885 320.739 357.65 322.06 352.665 322.497C344.415 323.221 336.114 320.157 328.062 318.828C312.338 316.231 295.941 322.181 280.283 322.931C271.948 323.329 264.777 321.141 256.963 318.643C250.967 316.725 244.215 314.972 237.861 315.827C229.068 317.011 213.899 326.951 210.471 313.528C210.153 312.28 208.224 312.81 208.543 314.06Z" fill="#434040"/>
<path d="M233.636 308.336C234.694 304.842 239.673 307.187 241.233 309.051C242.061 310.041 243.468 308.619 242.647 307.637C240.003 304.476 233.244 302.73 231.709 307.805C231.333 309.042 233.264 309.568 233.636 308.336Z" fill="#434040"/>
<path d="M260.52 295.765C261.856 293.372 264.66 295.507 266.478 296.224C267.679 296.699 268.195 294.764 267.009 294.296C264.137 293.161 260.8 291.161 258.793 294.755C258.163 295.882 259.891 296.891 260.52 295.765Z" fill="#434040"/>
<path d="M276.429 313.789C276.742 312.494 277.032 311.122 277.878 310.051C278.959 308.685 281.037 311.865 281.416 312.392C281.711 312.802 282.31 313.088 282.784 312.75C285.87 310.551 288.083 312.29 290.021 314.776C290.813 315.793 292.218 314.366 291.435 313.362C288.85 310.045 285.488 308.377 281.774 311.023C282.23 311.142 282.686 311.262 283.142 311.381C281.964 309.741 280.5 307.673 278.258 307.718C275.766 307.769 274.932 311.461 274.5 313.257C274.2 314.51 276.127 315.042 276.429 313.789Z" fill="#434040"/>
<path d="M308.71 296.224C309.231 296.029 309.598 295.822 309.913 295.333C311.594 292.728 312.96 296.135 313.576 297.401C313.885 298.039 314.678 297.967 315.146 297.603C317.614 295.682 320.23 296.038 322.655 297.759C323.71 298.508 324.707 296.773 323.665 296.032C320.45 293.749 316.84 293.769 313.732 296.188C314.255 296.255 314.779 296.323 315.302 296.39C314.633 295.014 313.644 292.477 311.829 292.214C311.242 292.128 310.41 291.936 309.87 292.338C309.36 292.718 308.638 294.12 308.178 294.294C306.983 294.745 307.5 296.679 308.71 296.224Z" fill="#434040"/>
<path d="M341.468 313.755C342.398 312.231 342.942 313.632 343.722 314.33C344.269 314.819 344.911 315.018 345.607 315.181C348.168 315.78 350.453 314.606 352.436 316.954C353.269 317.94 354.676 316.519 353.85 315.54C352.904 314.42 351.815 313.636 350.327 313.441C348.604 313.216 346.153 313.825 344.774 312.591C342.762 310.79 341.445 309.951 339.742 312.744C339.068 313.85 340.798 314.854 341.468 313.755Z" fill="#434040"/>
<path d="M77.9569 344.671L131.546 313.719L131.436 325.58L77.4869 358.683L77.9249 346.404" fill="#F6BA4E"/>
<path d="M7.60886 309.654L7.13986 320.698L78.2759 358.744L77.8979 345.458L7.60886 309.654Z" fill="#F6BA4E"/>
<path d="M48.0489 261.678C48.0489 261.678 75.4629 270.601 96.5959 255.473C119.183 239.304 119.197 239.302 97.4419 254.744L84.0279 217.717C84.0279 217.717 75.1749 211.366 68.0939 216.509L48.0489 261.678Z" fill="#F6BA4E"/>
<path d="M27.0189 309.345C26.8209 308.687 38.5939 284.571 38.5939 284.571C38.5939 284.571 59.5099 290.656 72.1809 291.605C84.8539 292.555 104.11 281.565 104.11 281.565L112.387 313.253C112.387 313.253 83.2039 326.273 62.0619 324.668C40.9159 323.064 27.0189 309.345 27.0189 309.345Z" fill="#F6BA4E"/>
<path d="M26.7079 310.542C27.4729 310.214 27.9529 308.679 28.2819 308.026C29.6289 305.351 30.8869 302.63 32.1559 299.918C35.8489 292.022 39.4519 284.083 43.0359 276.136C45.5839 270.488 47.9979 264.772 50.5969 259.147C54.0219 251.733 57.4949 244.341 61.0129 236.97C64.0759 230.553 65.9309 223.442 69.3349 217.241C69.9559 216.11 68.2289 215.1 67.6079 216.231C64.4749 221.937 62.9239 228.378 60.1039 234.252C56.8399 241.049 53.6349 247.875 50.4559 254.713C47.7169 260.604 45.1519 266.573 42.4899 272.501C39.0249 280.217 35.5219 287.917 31.9699 295.594C30.5949 298.566 29.2089 301.532 27.7929 304.483C27.3569 305.392 25.8249 308.762 25.6969 308.817C24.5169 309.324 25.5369 311.046 26.7079 310.542Z" fill="#434040"/>
<path d="M67.5889 217.371C70.5189 219.073 73.4829 220.335 76.8619 220.762C79.8209 221.135 81.6999 219.677 84.2929 218.68C85.4839 218.222 84.9669 216.288 83.7619 216.752C81.7069 217.542 80.1949 218.677 77.8929 218.804C74.6219 218.984 71.3309 217.233 68.5979 215.645C67.4809 214.996 66.4739 216.724 67.5889 217.371Z" fill="#434040"/>
<path d="M83.0929 217.588C86.5269 234.846 95.1089 250.552 99.5119 267.562C101.721 276.098 104.435 284.499 106.809 292.99C107.935 297.016 108.865 301.089 109.768 305.169C110.311 307.623 111.551 310.739 111.388 313.254C111.305 314.542 113.305 314.534 113.388 313.254C113.499 311.545 112.797 309.668 112.422 308.021C111.511 304.014 110.677 299.995 109.685 296.005C107.415 286.878 104.418 277.935 101.931 268.865C99.4869 259.955 96.6989 251.386 93.3119 242.782C90.0009 234.37 86.7919 225.95 85.0219 217.057C84.7699 215.792 82.8429 216.33 83.0929 217.588Z" fill="#434040"/>
<path d="M26.1259 310.245C32.5529 321.519 49.1439 325.208 61.1029 325.656C70.3889 326.004 80.0979 324.651 89.1699 322.76C94.1089 321.731 98.9179 320.192 103.574 318.265C106.933 316.875 110.741 315.582 113.184 312.78C113.918 311.938 112.996 310.634 111.972 311.21C111.766 311.325 111.559 311.441 111.353 311.558C110.229 312.189 111.237 313.917 112.363 313.285C112.569 313.17 112.776 313.054 112.982 312.937C112.578 312.414 112.174 311.89 111.77 311.367C109.299 314.2 104.912 315.564 101.516 316.97C97.8939 318.468 94.0969 319.525 90.2979 320.457C81.6119 322.589 72.6079 323.317 63.6929 323.627C51.8869 324.036 34.1859 320.348 27.8519 309.237C27.2139 308.116 25.4859 309.123 26.1259 310.245Z" fill="#434040"/>
<path d="M9.62387 308.851C18.4759 304.747 26.0679 298.589 33.6089 292.495C34.6119 291.685 33.1879 290.278 32.1949 291.081C24.7789 297.073 17.3159 303.09 8.61387 307.124C7.44487 307.666 8.46187 309.39 9.62387 308.851Z" fill="#434040"/>
<path d="M8.02786 308.87C10.0979 312.628 14.8279 314.375 18.3799 316.378C24.3079 319.721 29.8899 323.817 35.8399 327.209C42.0989 330.777 48.1339 334.272 54.8199 337.019C62.3609 340.117 70.0719 342.7 77.3929 346.322C78.5449 346.892 79.5579 345.168 78.4029 344.595C65.6979 338.309 51.9409 334.705 39.8049 327.221C34.0199 323.654 27.9329 320.658 22.3779 316.717C18.5749 314.018 12.0589 312.043 9.75386 307.861C9.13186 306.731 7.40486 307.74 8.02786 308.87Z" fill="#434040"/>
<path d="M78.2229 345.635C81.8729 344.565 84.6239 341.935 87.6099 339.701C91.8439 336.534 96.7769 334.252 101.521 331.972C112.158 326.861 121.802 320.367 132.051 314.581C131.647 314.058 131.243 313.534 130.839 313.011C130.552 313.319 130.265 313.626 129.978 313.934C129.099 314.875 130.51 316.292 131.392 315.348C131.679 315.04 131.966 314.733 132.253 314.425C133.026 313.597 132.046 312.287 131.041 312.855C121.825 318.057 113.181 324.096 103.645 328.744C98.9189 331.047 94.1809 333.258 89.6639 335.962C85.6449 338.367 82.2439 342.371 77.6909 343.707C76.4569 344.069 76.9829 345.999 78.2229 345.635Z" fill="#434040"/>
<path d="M107.807 292.241C117.221 297.055 122.834 306.398 130.959 312.851C130.959 312.379 130.959 311.909 130.959 311.437C130.922 311.451 130.886 311.464 130.849 311.478C129.562 311.516 129.559 313.516 130.849 313.478C131.584 313.457 131.835 313.349 132.373 312.851C132.74 312.511 132.79 311.768 132.373 311.437C124.109 304.873 118.397 295.413 108.817 290.514C107.67 289.928 106.658 291.654 107.807 292.241Z" fill="#434040"/>
<path d="M76.8979 345.458C76.5959 349.272 76.1499 353.094 76.6219 356.911C76.7779 358.173 78.5239 358.222 78.6219 356.911C78.6419 356.649 78.6609 356.389 78.6819 356.127C78.7809 354.84 76.7809 354.85 76.6819 356.127C76.6609 356.389 76.6419 356.649 76.6219 356.911C77.2889 356.911 77.9549 356.911 78.6219 356.911C78.1499 353.094 78.5959 349.271 78.8979 345.458C78.9999 344.172 76.9989 344.182 76.8979 345.458Z" fill="#434040"/>
<path d="M131.151 313.568C130.834 317.897 130.674 322.235 130.361 326.564C130.268 327.851 132.269 327.842 132.361 326.564C132.674 322.235 132.834 317.897 133.151 313.568C133.246 312.281 131.245 312.289 131.151 313.568Z" fill="#434040"/>
<path d="M79.1099 357.85C87.7249 351.537 97.2949 346.89 106.597 341.71C115.202 336.919 122.952 330.522 131.941 326.442C133.114 325.91 132.096 324.187 130.931 324.715C121.956 328.786 114.137 335.123 105.587 339.983C96.3209 345.25 86.7289 349.799 78.0999 356.123C77.0709 356.877 78.0669 358.614 79.1099 357.85Z" fill="#434040"/>
<path d="M6.60887 309.654C6.16387 313.267 6.23786 316.914 6.57386 320.533C6.69186 321.806 8.69286 321.817 8.57386 320.533C8.23786 316.914 8.16287 313.267 8.60887 309.654C8.76587 308.375 6.76487 308.391 6.60887 309.654Z" fill="#434040"/>
<path d="M7.44687 321.622C19.0689 328.34 31.1689 334.142 43.0899 340.296C49.0429 343.368 54.9079 346.6 60.6469 350.056C63.6399 351.858 66.4759 353.932 69.5959 355.507C72.3549 356.901 75.1939 357.857 77.7719 359.607C77.9409 358.986 78.1079 358.365 78.2769 357.744C78.0139 357.723 77.7509 357.704 77.4869 357.683C76.1999 357.584 76.2099 359.585 77.4869 359.683C77.7499 359.704 78.0129 359.723 78.2769 359.744C79.3449 359.826 79.5369 358.393 78.7819 357.881C73.9219 354.581 68.2519 352.446 63.2309 349.297C57.5489 345.733 51.6449 342.527 45.7099 339.408C33.2969 332.884 20.6059 326.919 8.45688 319.896C7.33788 319.249 6.33087 320.978 7.44687 321.622Z" fill="#434040"/>
<path d="M38.3939 284.681C49.8709 287.653 61.0719 291.742 73.0049 292.41C78.8569 292.737 84.6689 291.862 90.1509 289.831C92.2149 289.066 94.1909 288.054 96.1469 287.052C97.8169 286.197 102.51 282.376 104.273 282.584C104.104 281.963 103.937 281.342 103.768 280.721C103.747 280.725 103.726 280.728 103.704 280.732C102.414 280.675 102.419 282.675 103.704 282.732C104.13 282.75 104.395 282.629 104.777 282.449C105.783 281.975 105.143 280.688 104.273 280.585C103.127 280.45 101.684 281.74 100.756 282.249C98.4189 283.532 96.0969 284.835 93.7239 286.051C87.7059 289.134 81.5159 290.378 74.7809 290.452C62.5169 290.588 50.6339 285.785 38.9269 282.755C37.6759 282.429 37.1459 284.359 38.3939 284.681Z" fill="#434040"/>
<path d="M47.5439 262.541C63.0349 269.553 84.4459 264.876 97.9469 255.606C97.5429 255.083 97.1389 254.559 96.7349 254.036C96.4529 254.279 96.1709 254.522 95.8889 254.765C94.9099 255.609 96.3319 257.017 97.3029 256.179C97.5849 255.936 97.8669 255.693 98.1489 255.45C99.0069 254.71 97.8729 253.237 96.9369 253.88C84.1009 262.693 63.3679 267.52 48.5539 260.815C47.3879 260.288 46.3709 262.01 47.5439 262.541Z" fill="#434040"/>
<path d="M51.8989 256.246C53.9979 256.419 56.0809 256.746 58.1799 256.92C59.4659 257.027 59.4559 255.025 58.1799 254.92C56.0809 254.746 53.9979 254.419 51.8989 254.246C50.6129 254.14 50.6229 256.141 51.8989 256.246Z" fill="#434040"/>
<path d="M54.2619 250.277C56.2879 250.8 58.3469 250.807 60.4259 250.758C61.7139 250.728 61.7169 248.728 60.4259 248.758C58.5259 248.803 56.6469 248.827 54.7929 248.349C53.5439 248.026 53.0139 249.955 54.2619 250.277Z" fill="#434040"/>
<path d="M56.6099 246.316C58.4459 246.455 60.2819 246.595 62.1179 246.734C63.4049 246.832 63.3959 244.831 62.1179 244.734C60.2819 244.595 58.4459 244.455 56.6099 244.316C55.3229 244.218 55.3319 246.219 56.6099 246.316Z" fill="#434040"/>
<path d="M59.1319 241.758C60.9689 241.897 62.8039 242.036 64.6409 242.175C65.9279 242.273 65.9189 240.272 64.6409 240.175C62.8049 240.036 60.9689 239.897 59.1319 239.758C57.8449 239.661 57.8539 241.662 59.1319 241.758Z" fill="#434040"/>
<path d="M61.9259 236.232C63.6859 236.363 65.4299 236.433 67.1529 235.979C68.3989 235.652 67.8699 233.722 66.6219 234.051C65.0769 234.457 63.5029 234.349 61.9269 234.232C60.6389 234.136 60.6479 236.136 61.9259 236.232Z" fill="#434040"/>
<path d="M63.5619 231.99C65.1239 232.333 66.6299 232.584 68.2219 232.303C69.4909 232.079 68.9509 230.153 67.6909 230.375C66.4779 230.589 65.2769 230.321 64.0929 230.062C62.8369 229.786 62.3029 231.713 63.5619 231.99Z" fill="#434040"/>
<path d="M66.2129 226.666C67.4639 226.762 68.7119 226.852 69.9649 226.753C71.2419 226.652 71.2519 224.652 69.9649 224.753C68.7119 224.852 67.4639 224.762 66.2129 224.666C64.9259 224.568 64.9359 226.569 66.2129 226.666Z" fill="#434040"/>
<path d="M69.7299 217.272C72.0839 212.433 80.5219 215.824 83.9919 217.63C85.1349 218.225 86.1459 216.499 85.0019 215.903C80.5459 213.583 70.9839 210.135 68.0039 216.261C67.4419 217.417 69.1659 218.431 69.7299 217.272Z" fill="#434040"/>
<path d="M37.4679 303.029C39.1649 303.21 40.7059 304.034 42.4399 303.546C43.6799 303.197 43.1519 301.268 41.9089 301.618C40.4889 302.017 38.8919 301.18 37.4689 301.029C36.1859 300.892 36.1989 302.894 37.4679 303.029Z" fill="#434040"/>
<path d="M38.8759 296.59C40.2319 297.134 41.7789 297.43 43.2419 297.333C44.5219 297.248 44.5299 295.248 43.2419 295.333C41.9349 295.419 40.6189 295.147 39.4069 294.662C38.2089 294.182 37.6939 296.118 38.8759 296.59Z" fill="#434040"/>
<path d="M40.9869 289.627C42.2549 290.141 43.5849 290.419 44.9449 290.538C46.2299 290.651 46.2189 288.65 44.9449 288.538C43.7659 288.434 42.6139 288.142 41.5179 287.699C41.0119 287.494 40.4199 287.918 40.2879 288.397C40.1309 288.969 40.4819 289.423 40.9869 289.627Z" fill="#434040"/>
<path d="M28.9489 306.834C34.8329 310.101 40.6609 313.406 47.0159 315.681C53.1329 317.869 59.7869 317.824 66.1849 318.264C67.4729 318.353 67.4639 316.352 66.1849 316.264C59.8669 315.83 53.6429 315.657 47.5479 313.752C41.3359 311.81 35.6149 308.248 29.9589 305.107C28.8299 304.481 27.8219 306.208 28.9489 306.834Z" fill="#434040"/>
<path d="M71.4149 318.012C72.2799 317.867 73.1519 317.761 74.0169 317.617C74.5559 317.528 74.8479 316.871 74.7159 316.387C74.5599 315.821 74.0229 315.599 73.4859 315.689C72.6199 315.832 71.7489 315.938 70.8839 316.085C70.3459 316.176 70.0519 316.83 70.1849 317.314C70.3399 317.879 70.8779 318.103 71.4149 318.012Z" fill="#434040"/>
<path d="M77.9959 317.326C78.8769 317.162 79.7209 316.854 80.6109 316.732C81.1529 316.659 81.4399 315.974 81.3099 315.503C81.1509 314.926 80.6189 314.73 80.0799 314.805C79.1889 314.926 78.3459 315.234 77.4649 315.399C76.9279 315.499 76.6309 316.137 76.7659 316.629C76.9199 317.186 77.4609 317.426 77.9959 317.326Z" fill="#434040"/>
<path d="M101.893 310.038C102.654 309.896 103.371 309.612 104.117 309.414C105.363 309.083 104.834 307.154 103.586 307.486C102.84 307.684 102.123 307.967 101.362 308.11C100.825 308.21 100.528 308.848 100.663 309.339C100.816 309.898 101.358 310.138 101.893 310.038Z" fill="#434040"/>
<path d="M108.034 307.339C109.47 306.933 110.508 305.897 111.606 304.944C112.582 304.097 111.161 302.689 110.192 303.53C109.369 304.244 108.581 305.105 107.503 305.411C106.263 305.762 106.79 307.692 108.034 307.339Z" fill="#434040"/>
<path d="M82.5349 232.784C84.4649 237.949 86.4279 243.097 87.8749 248.422C88.2129 249.665 90.1429 249.137 89.8039 247.891C88.3569 242.565 86.3939 237.417 84.4639 232.253C84.0159 231.055 82.0829 231.574 82.5349 232.784Z" fill="#434040"/>
<path d="M43.9759 280.869C48.0249 283.883 53.3249 284.639 58.2529 284.625C59.5429 284.621 59.5429 282.621 58.2529 282.625C53.6429 282.638 48.7739 281.961 44.9859 279.143C43.9499 278.37 42.9539 280.108 43.9759 280.869Z" fill="#434040"/>
<path d="M63.2109 286.17C64.6149 286.453 66.0059 286.432 67.4249 286.309C68.6999 286.199 68.7109 284.198 67.4249 284.309C66.1949 284.415 64.9599 284.487 63.7419 284.243C62.4829 283.989 61.9469 285.916 63.2109 286.17Z" fill="#434040"/>
<path d="M201.943 203.588L199.001 323.989L185.501 317.187L186.427 222.722L190.59 204.767H202.142" fill="#3B2814"/>
<path d="M134.398 332.106C135.152 331.451 152.157 277.399 155.688 261.061C159.219 244.725 168.187 198.481 168.187 198.481L185.487 201.462C185.487 201.462 161.184 298.744 160.895 305.544C160.607 312.348 153.538 339.938 153.538 339.938L134.504 333.336" fill="#995B25"/>
<path d="M191.429 201.658C191.429 201.658 187.211 217.82 185.698 224.256C184.185 230.691 170.278 295.744 168.915 302.137C167.552 308.532 159.936 338.242 159.936 338.242L153.538 339.937C153.538 339.937 160.315 306.959 162.074 298.929C163.837 290.9 171.071 258.389 172.484 254.317C173.896 250.242 182.395 204.57 185.697 200.967L191.429 201.658Z" fill="#4D2E13"/>
<path d="M304.068 224.011L301.004 344.738L287.447 338.103L288.338 242.677L292.471 223.767H304.142" fill="#3B2814"/>
<path d="M236.281 353.031C237.034 352.365 254.038 297.259 257.57 280.601C261.101 263.947 270.069 216.798 270.069 216.798L287.37 219.838C287.37 219.838 263.067 319.019 262.778 325.953C262.489 332.888 255.42 361.017 255.42 361.017L236.385 354.288" fill="#995B25"/>
<path d="M293.312 222.739C293.312 222.739 289.093 238.899 287.579 245.335C286.067 251.773 272.16 316.823 270.797 323.217C269.432 329.612 261.819 359.321 261.819 359.321L255.419 361.018C255.419 361.018 262.195 328.04 263.955 320.01C265.718 311.982 272.952 279.472 274.366 275.395C275.776 271.322 284.276 225.65 287.578 222.046L293.312 222.739Z" fill="#4D2E13"/>
<path d="M153.538 152.368L164.456 148.342C164.456 148.342 201.038 155.951 221.646 159.002C242.253 162.054 312.577 172.662 317.411 177.814L309.024 184.032C309.024 184.032 253.774 170.069 226.153 166.45C198.53 162.831 158.909 158.14 153.538 152.368Z" fill="#5C5E5C"/>
<path d="M151.947 195.132L152.601 154.534C152.601 154.534 199.666 165.586 212.514 164.447C225.362 163.309 310.79 184.032 310.79 184.032L312.092 222.631L151.947 195.132Z" fill="#F6BA4E"/>
<mask id="mask0_703_41" style="mask-type:luminance" maskUnits="userSpaceOnUse" x="151" y="154" width="162" height="69">
<path d="M151.947 195.132L152.601 154.534C152.601 154.534 199.666 165.586 212.514 164.447C225.362 163.309 310.79 184.032 310.79 184.032L312.092 222.631L151.947 195.132Z" fill="white"/>
</mask>
<g mask="url(#mask0_703_41)">
<path d="M186.92 143.877C167.23 155.8 148.348 168.964 129.572 182.269C120.412 188.76 129.171 204.001 138.437 197.436C157.213 184.131 176.094 170.968 195.786 159.044C205.459 153.188 196.637 137.994 186.92 143.877Z" fill="#333333"/>
</g>
<mask id="mask1_703_41" style="mask-type:luminance" maskUnits="userSpaceOnUse" x="151" y="154" width="162" height="69">
<path d="M151.947 195.132L152.601 154.534C152.601 154.534 199.666 165.586 212.514 164.447C225.362 163.309 310.79 184.032 310.79 184.032L312.092 222.631L151.947 195.132Z" fill="white"/>
</mask>
<g mask="url(#mask1_703_41)">
<path d="M243.326 147.906C213.02 162.642 186.63 183.75 159.432 203.359C155.558 206.155 153.687 210.948 156.281 215.377C158.526 219.21 164.407 221.335 168.298 218.529C195.497 198.918 221.885 177.811 252.189 163.074C262.376 158.12 253.466 142.974 243.326 147.906Z" fill="#333333"/>
</g>
<mask id="mask2_703_41" style="mask-type:luminance" maskUnits="userSpaceOnUse" x="151" y="154" width="162" height="69">
<path d="M151.947 195.132L152.601 154.534C152.601 154.534 199.666 165.586 212.514 164.447C225.362 163.309 310.79 184.032 310.79 184.032L312.092 222.631L151.947 195.132Z" fill="white"/>
</mask>
<g mask="url(#mask2_703_41)">
<path d="M310.557 158.166C307.942 153.702 302.914 153.066 298.541 155.015C268.525 168.385 241.161 186.578 214.411 205.494C205.243 211.976 214.004 227.218 223.275 220.661C250.028 201.747 277.39 183.553 307.406 170.184C311.782 168.234 312.775 161.951 310.557 158.166Z" fill="#333333"/>
</g>
<mask id="mask3_703_41" style="mask-type:luminance" maskUnits="userSpaceOnUse" x="151" y="154" width="162" height="69">
<path d="M151.947 195.132L152.601 154.534C152.601 154.534 199.666 165.586 212.514 164.447C225.362 163.309 310.79 184.032 310.79 184.032L312.092 222.631L151.947 195.132Z" fill="white"/>
</mask>
<g mask="url(#mask3_703_41)">
<path d="M348.071 160.466C314.2 178.418 282.124 199.41 250.908 221.609C241.76 228.113 250.52 243.356 259.773 236.775C290.992 214.58 323.066 193.585 356.937 175.634C366.948 170.327 358.072 155.165 348.071 160.466Z" fill="#333333"/>
</g>
<path d="M311.074 225.237L321.101 221.69C321.101 221.69 321.202 191.082 321.101 186.812C321 182.54 320.796 179.199 320.796 179.199L309.692 184.033C309.692 184.033 314.568 221.157 311.074 225.237Z" fill="#5C5E5C"/>
<path d="M167.286 199.369C189.019 202.045 210.816 204.487 232.336 208.607C243.749 210.792 254.847 214.213 266.164 216.819C280.543 220.131 295.06 222.799 309.388 226.339C310.64 226.649 311.171 224.72 309.919 224.411C295.593 220.871 281.086 218.147 266.695 214.89C254.908 212.222 243.379 208.69 231.5 206.416C210.269 202.351 188.728 200.009 167.286 197.369C166.008 197.212 166.023 199.214 167.286 199.369Z" fill="#434040"/>
<path d="M151.528 196.272C156.659 197.463 161.825 198.463 167.02 199.334C168.281 199.545 168.821 197.618 167.551 197.405C162.357 196.535 157.191 195.535 152.059 194.343C150.805 194.052 150.272 195.98 151.528 196.272Z" fill="#434040"/>
<path d="M310.615 226.73C314.58 222.653 313.312 213.851 313.078 208.814C312.689 200.446 311.371 192.107 311.287 183.729C311.274 182.44 309.274 182.439 309.287 183.729C309.359 190.877 310.349 198.02 310.856 205.146C311.219 210.227 313.197 221.208 309.201 225.317C308.301 226.241 309.714 227.656 310.615 226.73Z" fill="#434040"/>
<path d="M152.167 193.428C151.664 179.831 153.336 166.3 153.42 152.711C153.428 151.421 151.428 151.422 151.42 152.711C151.335 166.3 149.663 179.831 150.167 193.428C150.214 194.714 152.215 194.718 152.167 193.428Z" fill="#434040"/>
<path d="M152.783 154.302C178.488 163.767 206.21 163.484 232.847 168.594C245.204 170.965 257.296 173.875 269.773 175.722C282.909 177.666 296.213 179.677 308.519 184.896C309.692 185.394 310.712 183.671 309.529 183.169C298.097 178.321 285.915 176.161 273.702 174.3C260.695 172.319 248.019 169.758 235.164 167.026C207.985 161.249 179.654 162.072 153.314 152.374C152.101 151.927 151.583 153.86 152.783 154.302Z" fill="#434040"/>
<path d="M321.444 221.541C323.68 215.993 322.779 208.785 322.578 202.977C322.304 195.05 321.532 187.131 321.48 179.198C321.471 177.909 319.471 177.908 319.48 179.198C319.526 186.279 320.146 193.356 320.473 200.427C320.766 206.758 321.951 214.968 319.516 221.01C319.034 222.207 320.968 222.722 321.444 221.541Z" fill="#434040"/>
<path d="M163.375 149.006C189.08 158.47 216.803 158.187 243.441 163.298C255.797 165.669 267.889 168.578 280.365 170.424C293.502 172.368 306.806 174.379 319.113 179.598C320.286 180.095 321.306 178.373 320.123 177.871C308.69 173.022 296.508 170.863 284.294 169.002C271.288 167.021 258.612 164.462 245.757 161.729C218.578 155.951 190.246 156.774 163.906 147.077C162.694 146.63 162.176 148.564 163.375 149.006Z" fill="#434040"/>
<path d="M152.467 153.953C156.073 152.276 159.771 150.816 163.449 149.306C164.625 148.823 164.111 146.887 162.918 147.377C159.08 148.952 155.221 150.476 151.458 152.226C150.288 152.77 151.305 154.494 152.467 153.953Z" fill="#434040"/>
<path d="M309.958 184.692C313.236 183.675 315.914 180.4 319.401 180.198C320.683 180.124 320.69 178.123 319.401 178.198C315.538 178.421 312.973 181.662 309.426 182.763C308.2 183.144 308.723 185.076 309.958 184.692Z" fill="#434040"/>
<path d="M310.412 226.886C313.833 225.088 317.465 223.727 320.984 222.139C322.158 221.61 321.14 219.886 319.974 220.412C316.455 222 312.823 223.361 309.402 225.159C308.261 225.759 309.272 227.486 310.412 226.886Z" fill="#434040"/>
<path d="M135.367 333.77C139.805 323.493 142.334 312.628 145.122 301.825C148.133 290.157 152.304 278.854 155.252 267.161C158.242 255.3 161.025 243.161 162.953 231.08C164.687 220.209 164.885 209.206 168.249 198.636C168.641 197.404 166.71 196.88 166.32 198.105C163.145 208.081 162.674 218.44 161.287 228.747C159.659 240.847 156.618 252.99 153.76 264.854C151.064 276.044 147.136 286.818 144.092 297.899C140.873 309.616 138.476 321.558 133.639 332.762C133.135 333.931 134.857 334.951 135.367 333.77Z" fill="#434040"/>
<path d="M184.733 200.702C177.9 221.635 174.849 243.7 169.432 265.022C165.988 278.58 163.91 292.449 160.949 306.113C159.782 311.498 158.437 316.81 157.42 322.227C156.337 328.001 155.329 333.99 152.674 339.287C152.098 340.436 153.823 341.45 154.401 340.297C158.965 331.192 159.69 320.249 162.021 310.43C165.406 296.17 167.531 281.646 170.912 267.384C176.12 245.411 179.649 222.718 186.662 201.234C187.063 200.004 185.132 199.481 184.733 200.702Z" fill="#434040"/>
<path d="M190.465 201.393C187.537 209.684 185.957 218.793 183.929 227.343C180.867 240.254 178.556 253.328 175.287 266.193C172.16 278.5 170.177 291.074 167.614 303.503C166.459 309.103 164.955 314.619 163.878 320.233C162.733 326.201 161.814 332.247 159.072 337.739C158.498 338.889 160.222 339.903 160.799 338.749C165.456 329.422 166.481 317.925 168.734 307.816C171.641 294.775 173.685 281.559 176.767 268.554C179.826 255.645 182.497 242.664 185.43 229.727C186.639 224.393 188.456 219.119 189.45 213.752C190.203 209.686 191.008 205.851 192.393 201.924C192.824 200.705 190.891 200.185 190.465 201.393Z" fill="#434040"/>
<path d="M133.215 335.409C139.713 337.93 146.773 338.238 153.272 340.756C154.476 341.223 154.993 339.288 153.803 338.828C147.305 336.31 140.244 336.001 133.746 333.481C132.542 333.013 132.026 334.948 133.215 335.409Z" fill="#434040"/>
<path d="M185.917 318.62C186.166 301.857 185.847 285.096 185.936 268.332C186.02 252.51 187.478 236.75 187.532 220.943C187.536 219.653 185.536 219.654 185.532 220.943C185.481 236.141 184.099 251.297 183.95 266.508C183.78 283.879 184.175 301.249 183.917 318.619C183.898 319.91 185.898 319.908 185.917 318.62Z" fill="#434040"/>
<path d="M199.97 323.302C200.27 302.962 199.787 282.62 200.071 262.281C200.209 252.429 200.596 242.584 201.31 232.756C201.998 223.279 201.399 213.746 201.952 204.254C202.027 202.965 200.027 202.972 199.952 204.254C199.436 213.096 199.769 221.943 199.463 230.788C199.101 241.293 198.245 251.759 198.07 262.281C197.732 282.62 198.269 302.963 197.969 323.302C197.951 324.592 199.952 324.59 199.97 323.302Z" fill="#434040"/>
<path d="M185.782 319.863C190.462 320.119 193.947 324.27 198.662 324.547C199.951 324.622 199.943 322.622 198.662 322.547C194.019 322.275 190.522 318.122 185.782 317.863C184.493 317.792 184.499 319.792 185.782 319.863Z" fill="#434040"/>
<path d="M153.548 341.198C156.176 340.488 158.521 338.893 161.161 338.27C162.416 337.974 161.884 336.046 160.63 336.342C157.988 336.965 155.646 338.56 153.017 339.27C151.773 339.606 152.302 341.535 153.548 341.198Z" fill="#434040"/>
<path d="M237.247 354.849C241.686 344.572 244.217 333.707 247.004 322.904C250.016 311.236 254.186 299.932 257.134 288.239C260.126 276.369 262.898 264.228 264.841 252.14C266.737 240.353 267.323 228.369 270.963 216.924C271.356 215.692 269.424 215.168 269.035 216.393C265.592 227.216 264.777 238.568 263.191 249.753C261.47 261.882 258.51 274.025 255.642 285.93C252.946 297.12 249.019 307.895 245.975 318.977C242.756 330.694 240.359 342.636 235.52 353.839C235.015 355.01 236.738 356.03 237.247 354.849Z" fill="#434040"/>
<path d="M287.036 219.963C284.054 226.969 283.201 234.36 281.303 241.721C277.671 255.803 275.259 270.169 271.776 284.287C268.273 298.483 265.927 312.907 262.832 327.19C261.665 332.574 260.32 337.886 259.304 343.304C258.22 349.078 257.211 355.067 254.558 360.365C253.982 361.514 255.707 362.528 256.285 361.375C260.636 352.691 260.953 342.654 263.455 333.398C267.279 319.255 269.09 304.572 272.361 290.294C275.605 276.139 278.61 261.927 281.886 247.78C283.098 242.543 285.136 237.273 285.803 231.939C286.303 227.937 287.149 224.766 288.764 220.971C289.261 219.8 287.539 218.78 287.036 219.963Z" fill="#434040"/>
<path d="M292.348 222.473C289.417 230.762 287.838 239.872 285.811 248.42C282.75 261.331 280.438 274.406 277.17 287.271C274.043 299.578 272.06 312.152 269.495 324.581C268.34 330.181 266.836 335.697 265.759 341.31C264.613 347.277 263.695 353.323 260.955 358.815C260.381 359.965 262.106 360.979 262.682 359.825C267.335 350.497 268.363 339.002 270.616 328.894C273.522 315.853 275.569 302.638 278.65 289.632C281.708 276.723 284.379 263.741 287.311 250.804C288.52 245.47 290.334 240.197 291.332 234.83C292.087 230.764 292.889 226.93 294.276 223.004C294.707 221.786 292.775 221.266 292.348 222.473Z" fill="#434040"/>
<path d="M235.097 356.489C241.595 359.007 248.656 359.317 255.154 361.835C256.358 362.302 256.875 360.367 255.685 359.907C249.187 357.389 242.127 357.079 235.628 354.561C234.424 354.094 233.908 356.029 235.097 356.489Z" fill="#434040"/>
<path d="M287.799 339.697C288.047 322.935 287.729 306.175 287.818 289.412C287.902 273.591 289.356 257.831 289.414 242.025C289.419 240.735 287.419 240.736 287.414 242.025C287.358 257.222 285.98 272.378 285.832 287.588C285.662 304.958 286.058 322.327 285.8 339.696C285.78 340.987 287.78 340.985 287.799 339.697Z" fill="#434040"/>
<path d="M301.854 344.381C302.153 324.041 301.669 303.7 301.953 283.361C302.09 273.508 302.478 263.662 303.191 253.835C303.88 244.357 303.281 234.825 303.834 225.334C303.909 224.045 301.908 224.053 301.834 225.334C301.319 234.175 301.653 243.022 301.345 251.866C300.979 262.372 300.127 272.838 299.953 283.361C299.615 303.7 300.153 324.042 299.854 344.381C299.835 345.671 301.835 345.669 301.854 344.381Z" fill="#434040"/>
<path d="M287.662 340.941C292.343 341.197 295.829 345.348 300.545 345.625C301.834 345.7 301.826 343.7 300.545 343.625C295.9 343.353 292.403 339.2 287.662 338.941C286.373 338.87 286.38 340.87 287.662 340.941Z" fill="#434040"/>
<path d="M255.43 362.277C258.058 361.566 260.403 359.971 263.043 359.35C264.299 359.055 263.766 357.127 262.512 357.422C259.869 358.043 257.527 359.638 254.899 360.349C253.655 360.685 254.183 362.615 255.43 362.277Z" fill="#434040"/>
<path d="M191.123 128.573C191.123 128.573 181.663 129.469 180.044 135.709C178.427 141.949 173.666 159.093 187.689 163.153C201.71 167.213 202.556 150.113 202.556 150.113C202.556 150.113 203.49 130.555 191.123 128.573Z" fill="#F6FEFF"/>
<path d="M206.991 144.088C206.901 143.637 206.619 143.4 206.294 143.306C206.251 143.023 206.187 142.74 206.129 142.457C206.127 142.427 206.136 142.399 206.13 142.369C206.025 141.746 205.902 141.151 205.774 140.563C206.298 140.253 206.65 139.567 206.299 138.937C205.357 137.241 204.188 135.839 202.907 134.518C201.925 133.203 200.926 131.898 199.811 130.676C199.089 129.883 198.121 130.458 197.919 131.264C197.477 131.673 197.307 132.365 197.869 132.906C200.371 135.313 201.777 138.268 203.136 141.341C203.481 143.495 203.714 145.704 203.672 147.86C203.424 148.631 203.059 149.386 202.558 150.114C202.046 150.856 202.559 151.567 203.239 151.763C203.04 152.679 202.763 153.567 202.401 154.423C201.297 156.138 200.011 157.7 198.729 159.333C197.8 160.518 199.201 161.958 200.385 160.99C201.84 159.799 202.937 158.445 203.771 156.98C203.858 156.91 203.941 156.841 204.007 156.741C204.2 156.443 204.374 156.145 204.543 155.848C204.975 155.95 205.443 155.818 205.725 155.308C207.75 151.649 207.799 148.122 206.991 144.088Z" fill="#F6BA4E"/>
<path d="M179.905 133.96C175.041 142.386 173.895 153.927 181.443 161.326C187.431 167.196 196.166 163.517 200.543 157.856C206.129 150.632 204.526 140.228 199.671 133.158C197.512 130.014 194.276 127.353 190.432 126.914C186.196 126.431 182.404 130.985 180.062 133.758C179.235 134.737 180.643 136.159 181.476 135.172C183.526 132.745 185.62 130.331 188.671 129.159C192.792 127.576 196.783 132.477 198.746 135.337C202.81 141.254 203.076 149.237 199.729 155.476C196.151 162.145 187.649 164.61 181.992 159.064C175.544 152.743 177.711 141.763 181.632 134.97C182.278 133.851 180.549 132.844 179.905 133.96Z" fill="#434040"/>
<path d="M188.662 164.774C199.704 165.169 208.561 159.491 209.859 148.17C211.094 137.385 202.479 125.844 190.974 126.912C189.701 127.03 189.689 129.031 190.974 128.912C201.912 127.897 208.295 138.458 207.859 148.17C207.396 158.454 197.868 163.103 188.662 162.774C187.372 162.728 187.377 164.728 188.662 164.774Z" fill="#434040"/>
<path d="M184.036 147.112C185.34 149.11 186.834 150.977 188.038 153.04C188.687 154.153 190.416 153.146 189.765 152.03C188.561 149.967 187.067 148.1 185.763 146.102C185.06 145.027 183.328 146.028 184.036 147.112Z" fill="#434040"/>
<path d="M185.97 139.606C188.104 142.296 189.333 145.692 192.047 147.906C193.037 148.714 194.461 147.308 193.461 146.492C190.777 144.302 189.505 140.865 187.384 138.192C186.583 137.182 185.178 138.607 185.97 139.606Z" fill="#434040"/>
<path d="M190.416 139.162C191.207 140.078 192.067 140.943 192.779 141.925C193.098 142.365 193.641 142.58 194.147 142.283C194.583 142.028 194.827 141.357 194.505 140.915C193.691 139.793 192.735 138.795 191.829 137.748C190.986 136.77 189.578 138.191 190.416 139.162Z" fill="#434040"/>
<path d="M281.294 144.968C281.294 144.968 271.833 145.863 270.217 152.103C268.598 158.343 263.838 175.487 277.862 179.546C291.883 183.608 292.728 166.507 292.728 166.507C292.728 166.507 293.66 146.949 281.294 144.968Z" fill="#F6FEFF"/>
<path d="M297.543 160.996C297.506 160.769 297.397 160.608 297.265 160.475C297.26 160.457 297.264 160.442 297.258 160.423C296.711 158.795 296.134 157.194 295.508 155.609C295.146 152.733 294.142 150.067 292.07 147.977C291.715 147.62 291.087 147.507 290.65 147.794C290.559 147.853 290.469 147.913 290.38 147.973C290.293 148.031 290.219 148.096 290.155 148.162C289.91 148.097 289.659 148.126 289.429 148.223C289.171 147.911 288.92 147.597 288.647 147.296C287.729 146.286 286.175 147.576 286.807 148.715C287.89 150.66 289.07 152.359 290.431 154.109C290.589 154.315 290.772 154.413 290.958 154.463C291.262 154.965 291.566 155.469 291.862 155.978C292.575 157.92 293.042 159.919 293.172 161.924C292.817 165.016 291.841 168.115 290.987 171.023C290.746 171.847 291.406 172.44 292.092 172.474C291.367 173.364 290.684 174.256 290.038 175.203C289.975 175.261 289.922 175.324 289.855 175.378C289.617 175.576 289.521 175.802 289.49 176.03C289.456 176.085 289.42 176.132 289.384 176.188C288.865 177.024 289.731 178.263 290.708 177.911C294.305 176.61 296.103 173.534 296.951 170.035C298.347 167.188 298.074 164.14 297.543 160.996ZM294.253 171.133C294.046 171.034 293.825 171.002 293.606 171.038C293.885 170.505 294.133 169.968 294.349 169.426C294.36 169.681 294.37 169.936 294.385 170.192C294.393 170.32 294.423 170.438 294.466 170.548C294.403 170.747 294.327 170.938 294.253 171.133Z" fill="#F6BA4E"/>
<path d="M270.076 151.526C265.213 159.953 264.065 171.493 271.614 178.893C277.601 184.762 286.336 181.083 290.713 175.423C296.3 168.199 294.699 157.794 289.844 150.724C287.685 147.58 284.447 144.919 280.603 144.48C276.367 143.997 272.575 148.551 270.233 151.324C269.407 152.303 270.814 153.725 271.647 152.738C273.697 150.311 275.791 147.897 278.843 146.725C282.963 145.142 286.956 150.043 288.919 152.903C292.982 158.82 293.247 166.804 289.899 173.043C286.321 179.711 277.82 182.176 272.163 176.631C265.714 170.31 267.882 159.33 271.803 152.536C272.449 151.416 270.72 150.41 270.076 151.526Z" fill="#434040"/>
<path d="M278.835 182.34C289.875 182.736 298.734 177.054 300.03 165.736C301.265 154.948 292.649 143.414 281.144 144.477C279.871 144.595 279.86 146.596 281.144 146.477C292.083 145.467 298.465 156.02 298.03 165.736C297.569 176.017 288.04 180.671 278.835 180.34C277.545 180.293 277.549 182.293 278.835 182.34Z" fill="#434040"/>
<path d="M272.823 168.655C273.906 169.898 274.777 171.298 275.779 172.604C276.552 173.612 278.292 172.618 277.506 171.594C276.401 170.154 275.433 168.613 274.237 167.241C273.388 166.267 271.98 167.687 272.823 168.655Z" fill="#434040"/>
<path d="M274 158.672C276.762 162.31 279.487 165.972 282.002 169.788C282.708 170.859 284.44 169.859 283.729 168.778C281.214 164.963 278.49 161.301 275.727 157.662C274.958 156.649 273.22 157.644 274 158.672Z" fill="#434040"/>
<path d="M283.345 159.318C284.056 160.173 284.761 161.029 285.411 161.932C285.728 162.373 286.274 162.586 286.779 162.29C287.215 162.035 287.457 161.365 287.137 160.922C286.387 159.882 285.577 158.889 284.758 157.904C284.409 157.484 283.702 157.545 283.344 157.904C282.933 158.316 282.996 158.9 283.345 159.318Z" fill="#434040"/>
</svg>
