<svg width="427" height="375" viewBox="0 0 427 375" fill="none" xmlns="http://www.w3.org/2000/svg">
<path d="M391.155 265.03C410.54 206.625 378.907 143.563 320.501 124.179C262.096 104.795 199.034 136.427 179.65 194.833C160.266 253.238 191.899 316.3 250.304 335.684C308.71 355.068 371.771 323.436 391.155 265.03Z" fill="#A459FF"/>
<path d="M314.089 153.075C314.089 153.075 332.462 52.2686 336.704 50.1846C340.944 48.0986 337.608 50.0536 337.608 50.0536C337.608 50.0536 403.491 121.857 405.877 129.92L313.919 153.925" fill="#F2E961"/>
<path d="M327.311 141.798C332.778 116.109 339.606 90.6356 342.208 64.4336C342.335 63.1506 340.334 63.1626 340.208 64.4336C337.624 90.4536 330.811 115.756 325.384 141.266C325.115 142.524 327.043 143.059 327.311 141.798Z" fill="#434040"/>
<path d="M391.35 123.581C374.544 104.413 357.147 85.7066 342.538 64.7526C341.807 63.7036 340.071 64.7016 340.811 65.7626C355.517 86.8566 373.016 105.699 389.935 124.995C390.787 125.966 392.197 124.546 391.35 123.581Z" fill="#434040"/>
<path d="M326.697 142.816C348.167 137.212 369.636 131.606 391.105 126.002C392.352 125.676 391.823 123.747 390.574 124.073C369.104 129.677 347.635 135.282 326.166 140.887C324.918 141.213 325.448 143.142 326.697 142.816Z" fill="#434040"/>
<path d="M315.688 154.215C345.693 146.383 375.698 138.55 405.702 130.717C406.949 130.391 406.42 128.462 405.171 128.788C375.166 136.622 345.162 144.454 315.157 152.287C313.91 152.612 314.439 154.541 315.688 154.215Z" fill="#434040"/>
<path d="M341.417 51.0766C338.174 46.1406 335.037 49.7406 333.789 54.0976C330.56 65.3696 328.473 76.7676 326.802 88.3556C325.247 99.1437 321.808 109.45 320.027 120.182C318.209 131.14 314.83 141.831 313.422 152.844C313.259 154.121 315.261 154.105 315.422 152.844C316.579 143.793 319.526 135.121 321.176 126.164C322.728 117.743 324.436 109.584 326.485 101.263C328.503 93.0686 329.179 84.6016 330.623 76.3016C331.368 72.0196 332.352 67.7806 333.378 63.5576C333.96 61.1606 334.598 58.7756 335.236 56.3926C335.508 55.3786 337.049 48.0646 339.691 52.0856C340.396 53.1596 342.128 52.1586 341.417 51.0766Z" fill="#434040"/>
<path d="M339.383 51.6796C346.316 58.6716 352.336 66.0756 358.159 73.9976C360.681 77.4276 363.644 80.5346 366.379 83.7926C369.575 87.6026 372.244 91.8036 375.132 95.8436C379.965 102.603 386.496 107.847 391.571 114.429C393.756 117.263 396.117 119.864 398.843 122.186C400.232 123.369 405.688 127.06 403.975 129.282C403.187 130.303 404.926 131.298 405.701 130.292C408.405 126.785 402.539 122.659 400.257 120.772C396.665 117.804 393.982 114.177 391.1 110.553C388.024 106.684 384.348 103.408 380.935 99.8496C377.126 95.8776 374.266 91.0366 371.078 86.5776C368.31 82.7056 365.052 79.2076 361.975 75.5856C358.452 71.4366 355.548 66.7866 352.101 62.5646C348.578 58.2516 344.715 54.2166 340.797 50.2646C339.888 49.3476 338.474 50.7626 339.383 51.6796Z" fill="#434040"/>
<path d="M353.908 117.577C353.946 114.32 352.216 111.223 350.914 108.321C348.347 102.596 346.783 96.5306 344.888 90.5746C344.1 87.7686 344.91 86.5466 347.315 86.9076C349.51 86.7346 349.722 86.5156 350.029 89.0446C350.374 91.8836 350.61 94.5886 351.238 97.3986C352.667 103.796 354.307 110.161 355.962 116.503C356.194 116.093 356.427 115.683 356.66 115.273C356.521 115.327 353.458 116.404 353.665 116.639C353.598 117.162 353.53 117.686 353.463 118.209C353.514 118.172 353.566 118.134 353.616 118.097C354.645 117.344 353.649 115.607 352.606 116.37C352.555 116.407 352.504 116.445 352.453 116.482C351.915 116.877 351.794 117.534 352.251 118.053C353.303 119.246 356.133 117.615 357.191 117.201C357.704 117.001 358.038 116.54 357.889 115.971C356.512 110.687 355.267 105.376 353.96 100.076C352.791 95.3346 352.574 90.4896 351.463 85.7756C351.354 85.3086 350.935 85.0906 350.499 85.0416C344.324 84.3456 341.334 86.0026 343.343 92.3116C344.93 97.3006 346.393 102.262 348.281 107.156C349.57 110.5 351.952 113.902 351.909 117.578C351.892 118.867 353.893 118.866 353.908 117.577Z" fill="#434040"/>
<path d="M356.482 121.286C349.552 122.377 353.465 133.427 359.863 130.366C366.278 127.299 358.894 117.557 354.884 122.136C354.038 123.102 355.447 124.522 356.298 123.55C358.285 121.281 362.445 126.64 359.143 128.501C355.439 130.588 352.615 123.907 357.013 123.215C358.285 123.014 357.743 121.087 356.482 121.286Z" fill="#434040"/>
<path d="M354.297 123.469C353.381 125.083 354.287 127.188 355.689 128.212C357.262 129.362 359.328 128.666 359.941 126.827C360.449 125.304 359.402 123.123 357.864 122.632C356.138 122.081 354.441 123.793 354.534 125.499C354.618 127.038 356.173 127.898 357.569 127.901C359.281 127.905 360.238 126.492 360.078 124.897C359.89 123.018 358.108 122.436 356.712 123.568C355.074 124.895 356.037 127.02 357.387 128.055C358.801 129.14 361.058 128.481 361.18 126.574C361.301 124.685 359.144 123.88 357.631 124.616C354.574 126.103 357.756 131.525 360.51 129.283C361.685 128.328 362.258 126.461 360.896 125.399C359.799 124.545 358.003 124.467 357.129 125.687C356.183 127.006 357.035 129.208 358.657 129.423C360.031 129.605 361.373 128.211 361.49 126.914C361.589 125.828 360.722 125.087 359.715 124.947C358.541 124.783 357.637 126.295 357.994 127.348C358.296 128.238 359.355 128.758 360.258 128.527C361.444 128.223 361.735 127.028 361.374 125.977C361.221 125.528 360.881 125.277 360.41 125.243C359.055 125.145 358.135 125.954 357.579 127.124C357.032 128.273 358.656 129.267 359.306 128.134C360.452 126.134 357.671 125.293 356.19 125.9C355.621 126.133 355.214 126.771 355.592 127.369C355.711 127.557 355.854 127.64 355.988 127.775C356.897 128.692 358.31 127.278 357.402 126.361C357.236 126.193 356.988 125.836 357.319 126.36C357.12 126.85 356.921 127.339 356.721 127.829C356.897 127.757 357.041 127.727 357.231 127.714C357.36 127.71 357.489 127.712 357.617 127.718C357.991 127.861 357.978 127.663 357.579 127.125C358.154 127.461 358.73 127.797 359.306 128.134C359.568 127.585 359.746 127.196 360.41 127.244C360.089 126.999 359.767 126.755 359.446 126.51C359.533 126.766 359.484 126.88 359.656 126.666C359.803 126.483 359.92 126.601 359.813 126.579C359.703 126.556 359.82 126.517 359.887 126.715C359.97 126.96 359.912 126.851 360.155 126.62C359.831 126.706 359.507 126.791 359.182 126.877C359.484 126.919 359.594 127.079 359.511 126.832C359.475 126.725 359.423 126.978 359.365 127.052C359.241 127.21 359.08 127.366 358.889 127.431C358.812 127.458 358.921 127.57 358.818 127.31C358.44 126.362 359.702 126.799 359.709 127.09C359.715 127.361 359.262 127.864 359.018 127.799C358.696 127.714 358.425 127.136 358.388 126.841C358.337 126.431 358.666 126.168 359.113 126.358C359.402 126.481 358.959 126.602 358.805 126.561C358.205 126.402 357.636 125.721 357.977 125.135C358.097 124.93 358.398 124.955 358.142 124.915C358.019 124.895 358.01 124.764 358.072 124.96C358.126 125.132 358.114 125.333 358.112 125.51C358.105 126.2 356.556 125.942 356.524 125.357C356.501 124.927 356.967 124.369 357.385 124.614C357.889 124.909 358.129 125.766 358.01 126.297C357.692 127.718 355.361 125.645 356.022 124.48C356.662 123.355 354.934 122.348 354.297 123.469Z" fill="#434040"/>
<path d="M352.234 113.227C353.05 114.495 353.147 114.62 354.155 115.736C354.701 116.341 355.97 115.905 355.862 115.029C355.719 113.866 355.758 113.662 354.906 112.892C354.37 112.407 353.421 112.568 353.235 113.333C352.901 114.708 352.839 114.766 353.663 115.912C354.086 116.501 354.989 116.611 355.39 115.912C356.198 114.503 356.146 113.535 354.936 112.449C354.445 112.008 353.373 112.088 353.265 112.89C353.03 114.626 352.959 114.454 353.532 116.117C353.877 117.12 355.646 117.029 355.496 115.851C354.579 108.673 352.008 101.84 349.567 95.0596C349.193 94.0216 348.88 93.3166 348.414 92.3596C348.049 91.6106 347.821 87.3856 348.486 89.9366C349.056 92.1216 348.993 94.5226 349.096 96.7666C349.763 96.7666 350.429 96.7666 351.096 96.7666C350.793 93.9406 351.934 87.2376 347.94 86.7506C347.576 86.7066 347.273 86.9817 347.077 87.2457C346.11 88.5497 346.663 90.3056 347.027 91.7616C347.635 91.5046 348.245 91.2477 348.854 90.9917C349.166 88.9247 349.421 88.6467 349.622 90.1577C349.731 90.7197 349.82 91.2847 349.89 91.8537C350.161 93.8147 350.561 95.7606 350.936 97.7036C351.843 102.417 352.988 107.079 354.271 111.702C354.828 111.378 355.385 111.054 355.942 110.729C352.303 106.045 351.894 99.7306 350.707 94.1227C350.018 90.8757 349.095 87.3437 345.92 85.7757C345.348 85.4927 344.63 85.7166 344.451 86.3736C343.458 90.0066 344.547 93.2816 345.783 96.7356C347.757 102.246 349.411 107.842 351.624 113.268C352.097 114.427 353.925 114.007 353.552 112.737C351.354 105.247 349.63 97.6516 348.057 90.0096C347.414 90.1866 346.772 90.3636 346.129 90.5406C347.238 94.4356 348.136 98.3676 349.597 102.153C350.056 103.343 351.991 102.827 351.525 101.622C350.065 97.8366 349.168 93.9036 348.057 90.0096C347.702 88.7606 345.871 89.2866 346.129 90.5406C347.702 98.1836 349.425 105.778 351.624 113.268C352.266 113.091 352.909 112.914 353.552 112.737C351.914 108.72 350.507 104.633 349.161 100.511C347.775 96.2667 345.142 91.4277 346.379 86.9057C345.89 87.1047 345.4 87.3036 344.91 87.5036C349.132 89.5886 349.324 97.5177 350.132 101.546C350.906 105.414 352.097 109.016 354.529 112.146C355.17 112.971 356.45 112.071 356.2 111.173C354.758 105.969 353.549 100.723 352.528 95.4207C351.996 92.6597 351.982 89.3987 350.508 86.9287C349.775 85.7017 348.194 85.7306 347.103 86.3696C344.847 87.6906 346.359 90.3176 347.129 92.0026C347.615 93.0656 349.222 92.2947 348.956 91.2327C347.999 87.3987 348.711 90.3636 348.874 92.5486C348.979 93.9546 348.947 95.3666 349.098 96.7686C349.232 98.0226 351.158 98.0786 351.098 96.7686C351.052 95.7646 350.533 82.8757 346.636 86.8107C344.47 88.9987 345.383 90.9196 346.689 93.3716C350.143 99.8576 352.573 108.613 353.498 115.853C354.152 115.765 354.808 115.676 355.462 115.587C355.373 114.865 355.284 114.144 355.194 113.422C354.637 113.57 354.08 113.716 353.523 113.863C353.57 114.21 353.617 114.556 353.665 114.903C354.24 114.903 354.816 114.903 355.392 114.903C355.317 114.557 355.242 114.212 355.165 113.865C354.608 114.012 354.051 114.159 353.494 114.306C353.617 114.547 353.741 114.788 353.864 115.029C354.433 114.793 355.002 114.558 355.571 114.322C355.035 113.62 354.499 112.919 353.963 112.217C353.265 111.138 351.533 112.14 352.234 113.227Z" fill="#434040"/>
<path d="M55.0586 23.8192L62.7671 24.2232L60.5582 66.3715C60.3302 70.7231 59.1008 74.5547 56.8702 77.8663C54.6613 81.1583 51.6507 83.6914 47.8383 85.4655C44.027 87.219 39.6244 87.9649 34.6304 87.7032C29.6364 87.4414 25.3359 86.2394 21.7287 84.0972C18.1227 81.9342 15.383 79.0998 13.5096 75.5939C11.658 72.0683 10.8463 68.1298 11.0743 63.7782L13.2832 21.6298L20.9918 22.0338L18.8155 63.5605C18.6526 66.6688 19.1914 69.471 20.432 71.9671C21.6737 74.4426 23.5222 76.4407 25.9775 77.9615C28.4546 79.4628 31.4649 80.3062 35.0083 80.4919C38.5518 80.6776 41.6337 80.1535 44.2542 78.9194C46.8757 77.6646 48.923 75.8706 50.3959 73.5375C51.8906 71.1847 52.7194 68.4542 52.8823 65.3459L55.0586 23.8192ZM128.639 27.6754L125.303 91.3331L117.843 90.9421L85.7744 39.143L85.1527 39.1104L82.5333 89.0916L74.8247 88.6876L78.1609 25.0299L85.6208 25.4209L117.808 77.3509L118.429 77.3835L121.055 27.2779L128.639 27.6754ZM160.373 93.171L140.728 92.1414L144.064 28.4838L164.579 29.5589C170.754 29.8825 175.971 31.4339 180.231 34.2129C184.491 36.9712 187.668 40.7843 189.761 45.6524C191.855 50.4997 192.729 56.2181 192.384 62.8077C192.036 69.4387 190.556 75.0857 187.943 79.7486C185.331 84.3909 181.699 87.8784 177.047 90.2111C172.396 92.5232 166.838 93.5098 160.373 93.171ZM148.795 85.7072L160.234 86.3067C165.497 86.5825 169.912 85.7957 173.479 83.9464C177.046 82.097 179.777 79.3415 181.673 75.6799C183.569 72.0182 184.653 67.5972 184.924 62.4167C185.193 57.2777 184.586 52.8096 183.102 49.0124C181.619 45.1945 179.261 42.2035 176.029 40.0393C172.799 37.8545 168.697 36.6317 163.723 36.3711L151.414 35.726L148.795 85.7072ZM203.64 95.4385L206.976 31.7808L245.394 33.7943L245.036 40.6325L214.326 39.0231L213.199 60.5324L241.919 62.0376L241.561 68.8758L212.841 67.3706L211.707 89.0043L242.914 90.6398L242.556 97.478L203.64 95.4385ZM255.952 98.1801L259.288 34.5224L280.798 35.6497C285.771 35.9103 289.809 36.9739 292.911 38.8403C296.014 40.686 298.255 43.1203 299.634 46.1432C301.014 49.166 301.605 52.5528 301.408 56.3035C301.212 60.0541 300.271 63.3398 298.585 66.1605C296.9 68.9812 294.428 71.1374 291.171 72.629C287.915 74.0998 283.821 74.706 278.889 74.4476L261.483 73.5354L261.848 66.5728L279.005 67.472C282.404 67.6501 285.165 67.2961 287.289 66.4101C289.434 65.5251 291.021 64.1953 292.049 62.4206C293.099 60.6263 293.691 58.4548 293.824 55.906C293.958 53.3572 293.598 51.1046 292.745 49.1483C291.891 47.1919 290.445 45.6408 288.407 44.495C286.369 43.3285 283.631 42.6551 280.191 42.4749L266.639 41.7646L263.661 98.5841L255.952 98.1801ZM287.415 71.1542L301.582 100.571L292.63 100.102L278.712 70.6981L287.415 71.1542Z" fill="#A459FF"/>
<path d="M18.7235 120.568L9.68867 120.094L11.0244 94.6077L20.1339 95.0851C22.6975 95.2195 24.8776 95.8454 26.6743 96.9628C28.4713 98.0719 29.8179 99.6025 30.7139 101.555C31.6182 103.507 32.001 105.807 31.8623 108.453C31.7231 111.108 31.1016 113.363 29.9978 115.219C28.9022 117.075 27.3943 118.464 25.4741 119.387C23.5622 120.31 21.312 120.704 18.7235 120.568ZM15.3192 115.76L18.7415 115.939C20.3344 116.023 21.6891 115.811 22.8055 115.304C23.9306 114.789 24.7983 113.948 25.4085 112.782C26.0274 111.608 26.3866 110.071 26.4862 108.171C26.5849 106.288 26.3876 104.735 25.8943 103.511C25.4094 102.287 24.6383 101.365 23.581 100.744C22.5237 100.123 21.1986 99.7706 19.6057 99.6871L16.171 99.5071L15.3192 115.76ZM35.1848 121.431L36.5205 95.9439L53.6942 96.8439L53.4613 101.287L41.6762 100.669L41.3579 106.742L52.2595 107.313L52.0267 111.756L41.1251 111.185L40.8062 117.27L52.6411 117.891L52.4082 122.333L35.1848 121.431ZM62.5828 97.3098L67.7281 116.997L67.9646 117.009L75.152 97.9685L81.1254 98.2816L71.0038 123.308L64.0596 122.944L56.5969 96.9961L62.5828 97.3098ZM82.8573 123.929L84.193 98.4423L101.367 99.3424L101.134 103.785L89.3488 103.167L89.0305 109.241L99.9321 109.812L99.6992 114.255L88.7977 113.683L88.4787 119.769L100.314 120.389L100.081 124.832L82.8573 123.929ZM104.315 125.054L105.651 99.5669L111.039 99.8493L109.937 120.893L120.863 121.466L120.63 125.909L104.315 125.054ZM147.295 114.528C147.149 117.307 146.499 119.644 145.343 121.538C144.195 123.433 142.69 124.848 140.828 125.782C138.974 126.708 136.923 127.112 134.674 126.994C132.409 126.875 130.404 126.255 128.657 125.131C126.911 124.008 125.566 122.444 124.623 120.44C123.68 118.436 123.281 116.048 123.426 113.277C123.572 110.497 124.218 108.16 125.366 106.266C126.513 104.371 128.014 102.96 129.868 102.034C131.722 101.1 133.782 100.692 136.047 100.81C138.295 100.928 140.292 101.549 142.039 102.672C143.794 103.787 145.143 105.347 146.086 107.351C147.038 109.356 147.441 111.748 147.295 114.528ZM141.832 114.241C141.926 112.441 141.736 110.909 141.262 109.644C140.795 108.38 140.094 107.403 139.156 106.714C138.219 106.024 137.099 105.645 135.797 105.577C134.494 105.509 133.341 105.768 132.337 106.356C131.333 106.944 130.529 107.842 129.924 109.05C129.329 110.258 128.984 111.763 128.889 113.563C128.795 115.363 128.981 116.896 129.447 118.16C129.922 119.424 130.627 120.401 131.565 121.091C132.502 121.781 133.622 122.16 134.924 122.228C136.227 122.296 137.38 122.036 138.384 121.448C139.388 120.86 140.188 119.962 140.784 118.754C141.388 117.546 141.737 116.042 141.832 114.241ZM150.619 127.48L151.955 101.994L162.01 102.521C163.943 102.622 165.57 103.077 166.892 103.887C168.215 104.688 169.198 105.759 169.844 107.099C170.498 108.431 170.78 109.943 170.692 111.636C170.603 113.328 170.16 114.803 169.362 116.059C168.564 117.315 167.453 118.267 166.03 118.916C164.615 119.566 162.928 119.839 160.97 119.737L154.561 119.401L154.788 115.083L160.325 115.373C161.363 115.427 162.226 115.294 162.917 114.972C163.617 114.643 164.149 114.167 164.514 113.546C164.888 112.917 165.097 112.183 165.141 111.345C165.186 110.499 165.054 109.751 164.747 109.103C164.449 108.447 163.969 107.927 163.306 107.543C162.645 107.15 161.791 106.927 160.746 106.872L157.112 106.681L156.007 127.763L150.619 127.48ZM180.033 103.465L178.697 128.952L173.309 128.669L174.644 103.183L180.033 103.465ZM205.784 104.815L204.448 130.301L199.794 130.057L189.547 113.435L189.36 113.425L188.519 129.467L183.131 129.184L184.466 103.697L189.195 103.945L199.356 120.551L199.58 120.562L200.42 104.534L205.784 104.815ZM226.704 114.172C226.562 113.557 226.345 113.009 226.054 112.528C225.764 112.039 225.399 111.62 224.96 111.273C224.529 110.918 224.028 110.638 223.456 110.433C222.893 110.229 222.263 110.108 221.566 110.072C220.263 110.003 219.101 110.267 218.08 110.862C217.067 111.458 216.255 112.36 215.642 113.567C215.03 114.767 214.678 116.254 214.585 118.029C214.492 119.805 214.682 121.329 215.156 122.602C215.63 123.874 216.344 124.864 217.297 125.571C218.25 126.27 219.399 126.655 220.743 126.725C221.963 126.789 223.015 126.628 223.9 126.242C224.795 125.848 225.491 125.265 225.989 124.492C226.495 123.72 226.777 122.79 226.834 121.704L227.92 121.923L221.35 121.578L221.562 117.521L232.227 118.08L232.059 121.291C231.942 123.531 231.368 125.431 230.338 126.991C229.308 128.543 227.941 129.711 226.236 130.495C224.531 131.271 222.609 131.603 220.468 131.49C218.079 131.365 216.007 130.728 214.254 129.58C212.501 128.423 211.17 126.843 210.26 124.841C209.358 122.83 208.978 120.481 209.119 117.793C209.227 115.727 209.623 113.901 210.305 112.314C210.995 110.72 211.914 109.387 213.06 108.316C214.206 107.244 215.516 106.452 216.991 105.939C218.465 105.425 220.044 105.213 221.728 105.301C223.172 105.376 224.505 105.658 225.727 106.147C226.95 106.627 228.023 107.274 228.945 108.087C229.876 108.902 230.62 109.852 231.179 110.937C231.738 112.015 232.072 113.189 232.18 114.459L226.704 114.172Z" fill="#A459FF"/>
<path d="M212.507 328.247C212.507 328.247 212.765 310.476 217.178 311.375C221.592 312.278 225.674 317.071 227.74 313.685C229.81 310.298 228.803 302.448 233.257 301.76C237.711 301.073 241.216 309.373 247.985 304.911C254.755 300.449 262.647 271.151 270.421 273.127C278.193 275.101 282.182 297.263 282.182 297.263C282.182 297.263 287.114 289.651 291.648 290.142C296.183 290.636 297.016 294.332 297.016 294.332C297.016 294.332 304.985 250.66 314.349 253.478C323.709 256.294 331.681 296.808 331.681 296.808C331.681 296.808 336.694 287.138 340.968 287.525C345.242 287.91 350.251 304.237 350.251 304.237C350.251 304.237 354.183 286.711 358.299 288.762C362.416 290.814 366.531 298.728 367.663 305.755C368.797 312.782 376.334 335.91 362.561 334.259C348.786 332.61 323.323 330.741 314.194 331.994C305.064 333.251 284.203 339.114 260.212 331.774C236.219 324.431 223.953 341.057 212.507 328.247Z" fill="#0CCE84"/>
<path d="M213.792 326.169C214.469 321.492 215.181 307.137 222.41 314.756C225.098 317.588 229.104 314.362 230.343 311.75C231.339 309.649 231.473 307.173 232.169 304.967C234.146 298.706 238.521 303.646 241.098 305.469C244.3 307.736 248.344 306.32 250.984 304.006C259.192 296.812 259.156 283.66 267.186 276.054C272.878 270.662 275.45 278.611 276.704 283.157C278.089 288.177 278.731 293.428 280.578 298.313C280.814 298.939 281.729 299.396 282.249 298.754C283.831 296.802 285.292 294.758 286.875 292.808C290.133 288.796 293.546 292.373 296.309 295.038C296.673 295.389 297.37 295.463 297.723 295.038C301.962 289.935 302.451 281.504 303.698 275.269C304.766 269.932 306.326 254.891 313.731 254.445C320.888 254.014 323.636 270.774 324.82 275.55C326.568 282.595 327.306 290.855 330.818 297.312C331.113 297.854 331.968 297.994 332.388 297.514C333.864 295.831 334.942 293.869 336.157 291.997C336.937 290.793 339.537 287.052 341.686 289.147C342.732 290.168 343.365 292.13 343.883 293.422C345.369 297.121 346.301 302.293 349.544 304.942C350.066 305.369 350.723 305.306 351.114 304.74C353.785 300.878 354.39 295.844 356.57 291.707C360.402 284.435 365.158 299.051 365.753 301.427C366.663 305.067 367.143 308.807 367.744 312.505C368.682 318.264 370.149 324.77 369.312 330.624C369.131 331.885 371.058 332.428 371.24 331.155C372.136 324.897 370.658 318.155 369.673 311.973C368.752 306.199 367.937 300.399 365.825 294.909C364.853 292.382 361.115 285.537 357.222 288.083C352.271 291.322 352.538 299.173 349.387 303.729C349.91 303.662 350.434 303.594 350.957 303.527C346.174 299.62 347.06 291.596 342.644 287.288C338.039 282.798 332.906 293.892 330.973 296.099C331.496 296.166 332.02 296.234 332.543 296.301C329.441 290.597 322.935 240.808 308.85 254.732C305.825 257.722 304.618 262.674 303.573 266.627C302.004 272.563 301.091 278.654 299.718 284.635C299.146 287.126 298.484 289.641 297.382 291.954C296.624 293.545 296.459 292.4 295.238 291.326C294.292 290.493 293.068 289.552 291.864 289.15C286.582 287.389 283.54 294.003 280.835 297.339C281.392 297.487 281.949 297.633 282.506 297.78C280.552 292.606 279.845 287.018 278.378 281.699C277.413 278.2 275.949 273.288 272.009 272.166C268.152 271.069 264.25 275.874 262.331 278.464C258.377 283.8 256.613 290.718 253.675 296.615C252.285 299.405 250.566 302.196 247.853 303.854C243.886 306.279 241.123 302.486 238.35 300.316C234.337 297.175 230.53 303.064 229.719 306.28C228.802 309.914 226.711 316.965 222.158 311.396C220.95 309.919 219.056 309.173 217.276 310.181C212.172 313.071 212.593 320.595 211.865 325.635C211.682 326.899 213.609 327.442 213.792 326.169Z" fill="#F14E1E"/>
<path d="M211.543 326.06C214.614 338.091 225.528 334.291 234.439 331.434C242.964 328.7 251.001 329.979 259.43 332.572C268.229 335.277 275.732 337.293 285.028 336.847C294.821 336.378 304.453 334.129 314.175 332.993C324.8 331.752 334.297 333.607 344.662 335.613C352.106 337.053 371.683 337.988 372.132 326.34C372.182 325.05 370.182 325.055 370.132 326.34C369.885 332.739 360.65 334.06 355.665 334.497C347.415 335.221 339.114 332.157 331.062 330.828C315.338 328.231 298.941 334.181 283.283 334.931C274.948 335.329 267.777 333.141 259.963 330.643C253.967 328.725 247.215 326.972 240.861 327.827C232.068 329.011 216.899 338.951 213.471 325.528C213.153 324.28 211.224 324.81 211.543 326.06Z" fill="#F14E1E"/>
<path d="M236.636 320.336C237.694 316.842 242.673 319.187 244.233 321.051C245.061 322.041 246.468 320.619 245.647 319.637C243.003 316.476 236.244 314.73 234.709 319.805C234.333 321.042 236.264 321.568 236.636 320.336Z" fill="#F14E1E"/>
<path d="M263.52 307.765C264.856 305.372 267.66 307.507 269.478 308.224C270.679 308.699 271.195 306.764 270.009 306.296C267.137 305.161 263.8 303.161 261.793 306.755C261.163 307.882 262.891 308.891 263.52 307.765Z" fill="#F14E1E"/>
<path d="M279.429 325.789C279.742 324.494 280.032 323.122 280.878 322.051C281.959 320.685 284.037 323.865 284.416 324.392C284.711 324.802 285.31 325.088 285.784 324.75C288.87 322.551 291.083 324.29 293.021 326.776C293.813 327.793 295.218 326.366 294.435 325.362C291.85 322.045 288.488 320.377 284.774 323.023C285.23 323.142 285.686 323.262 286.142 323.381C284.964 321.741 283.5 319.673 281.258 319.718C278.766 319.769 277.932 323.461 277.5 325.257C277.2 326.51 279.127 327.042 279.429 325.789Z" fill="#F14E1E"/>
<path d="M311.71 308.224C312.231 308.029 312.598 307.822 312.913 307.333C314.594 304.728 315.96 308.135 316.576 309.401C316.885 310.039 317.678 309.967 318.146 309.603C320.614 307.682 323.23 308.038 325.655 309.759C326.71 310.508 327.707 308.773 326.665 308.032C323.45 305.749 319.84 305.769 316.732 308.188C317.255 308.255 317.779 308.323 318.302 308.39C317.633 307.014 316.644 304.477 314.829 304.214C314.242 304.128 313.41 303.936 312.87 304.338C312.36 304.718 311.638 306.12 311.178 306.294C309.983 306.745 310.5 308.679 311.71 308.224Z" fill="#F14E1E"/>
<path d="M344.468 325.755C345.398 324.231 345.942 325.632 346.722 326.33C347.269 326.819 347.911 327.018 348.607 327.181C351.168 327.78 353.453 326.606 355.436 328.954C356.269 329.94 357.676 328.519 356.85 327.54C355.904 326.42 354.815 325.636 353.327 325.441C351.604 325.216 349.153 325.825 347.774 324.591C345.762 322.79 344.445 321.951 342.742 324.744C342.068 325.85 343.798 326.854 344.468 325.755Z" fill="#F14E1E"/>
<path d="M80.957 356.671L134.546 325.719L134.436 337.58L80.487 370.683L80.925 358.404" fill="#0FDA75"/>
<path d="M10.609 321.654L10.14 332.698L81.276 370.744L80.898 357.458L10.609 321.654Z" fill="#0FDA75"/>
<path d="M51.049 273.678C51.049 273.678 78.463 282.601 99.596 267.473C122.183 251.304 122.197 251.302 100.442 266.744L87.028 229.717C87.028 229.717 78.175 223.366 71.094 228.509L51.049 273.678Z" fill="#0FDA75"/>
<path d="M30.019 321.345C29.821 320.687 41.594 296.571 41.594 296.571C41.594 296.571 62.51 302.656 75.181 303.605C87.854 304.555 107.11 293.565 107.11 293.565L115.387 325.253C115.387 325.253 86.204 338.273 65.062 336.668C43.916 335.064 30.019 321.345 30.019 321.345Z" fill="#0FDA75"/>
<path d="M29.708 322.542C30.473 322.214 30.953 320.679 31.282 320.026C32.629 317.351 33.887 314.63 35.156 311.918C38.849 304.022 42.452 296.083 46.036 288.136C48.584 282.488 50.998 276.772 53.597 271.147C57.022 263.733 60.495 256.341 64.013 248.97C67.076 242.553 68.931 235.442 72.335 229.241C72.956 228.11 71.229 227.1 70.608 228.231C67.475 233.937 65.924 240.378 63.104 246.252C59.84 253.049 56.635 259.875 53.456 266.713C50.717 272.604 48.152 278.573 45.49 284.501C42.025 292.217 38.522 299.917 34.97 307.594C33.595 310.566 32.209 313.532 30.793 316.483C30.357 317.392 28.825 320.762 28.697 320.817C27.517 321.324 28.537 323.046 29.708 322.542Z" fill="#1BBBFF"/>
<path d="M70.589 229.371C73.519 231.073 76.483 232.335 79.862 232.762C82.821 233.135 84.7 231.677 87.293 230.68C88.484 230.222 87.967 228.288 86.762 228.752C84.707 229.542 83.195 230.677 80.893 230.804C77.622 230.984 74.331 229.233 71.598 227.645C70.481 226.996 69.474 228.724 70.589 229.371Z" fill="#1BBBFF"/>
<path d="M86.093 229.588C89.527 246.846 98.109 262.552 102.512 279.562C104.721 288.098 107.435 296.499 109.809 304.99C110.935 309.016 111.865 313.089 112.768 317.169C113.311 319.623 114.551 322.739 114.388 325.254C114.305 326.542 116.305 326.534 116.388 325.254C116.499 323.545 115.797 321.668 115.422 320.021C114.511 316.014 113.677 311.995 112.685 308.005C110.415 298.878 107.418 289.935 104.931 280.865C102.487 271.955 99.699 263.386 96.312 254.782C93.001 246.37 89.792 237.95 88.022 229.057C87.77 227.792 85.843 228.33 86.093 229.588Z" fill="#1BBBFF"/>
<path d="M29.126 322.245C35.553 333.519 52.144 337.208 64.103 337.656C73.389 338.004 83.098 336.651 92.17 334.76C97.109 333.731 101.918 332.192 106.574 330.265C109.933 328.875 113.741 327.582 116.184 324.78C116.918 323.938 115.996 322.634 114.972 323.21C114.766 323.325 114.559 323.441 114.353 323.558C113.229 324.189 114.237 325.917 115.363 325.285C115.569 325.17 115.776 325.054 115.982 324.937C115.578 324.414 115.174 323.89 114.77 323.367C112.299 326.2 107.912 327.564 104.516 328.97C100.894 330.468 97.097 331.525 93.298 332.457C84.612 334.589 75.608 335.317 66.693 335.627C54.887 336.036 37.186 332.348 30.852 321.237C30.214 320.116 28.486 321.123 29.126 322.245Z" fill="#1BBBFF"/>
<path d="M12.624 320.851C21.476 316.747 29.068 310.589 36.609 304.495C37.612 303.685 36.188 302.278 35.195 303.081C27.779 309.073 20.316 315.09 11.614 319.124C10.445 319.666 11.462 321.39 12.624 320.851Z" fill="#1BBBFF"/>
<path d="M11.028 320.87C13.098 324.628 17.828 326.375 21.38 328.378C27.308 331.721 32.89 335.817 38.84 339.209C45.099 342.777 51.134 346.272 57.82 349.019C65.361 352.117 73.072 354.7 80.393 358.322C81.545 358.892 82.558 357.168 81.403 356.595C68.698 350.309 54.941 346.705 42.805 339.221C37.02 335.654 30.933 332.658 25.378 328.717C21.575 326.018 15.059 324.043 12.754 319.861C12.132 318.731 10.405 319.74 11.028 320.87Z" fill="#1BBBFF"/>
<path d="M81.223 357.635C84.873 356.565 87.624 353.935 90.61 351.701C94.844 348.534 99.777 346.252 104.521 343.972C115.158 338.861 124.802 332.367 135.051 326.581C134.647 326.058 134.243 325.534 133.839 325.011C133.552 325.319 133.265 325.626 132.978 325.934C132.099 326.875 133.51 328.292 134.392 327.348C134.679 327.04 134.966 326.733 135.253 326.425C136.026 325.597 135.046 324.287 134.041 324.855C124.825 330.057 116.181 336.096 106.645 340.744C101.919 343.047 97.181 345.258 92.664 347.962C88.645 350.367 85.244 354.371 80.691 355.707C79.457 356.069 79.983 357.999 81.223 357.635Z" fill="#1BBBFF"/>
<path d="M110.807 304.241C120.221 309.055 125.834 318.398 133.959 324.851C133.959 324.379 133.959 323.909 133.959 323.437C133.922 323.451 133.886 323.464 133.849 323.478C132.562 323.516 132.559 325.516 133.849 325.478C134.584 325.457 134.835 325.349 135.373 324.851C135.74 324.511 135.79 323.768 135.373 323.437C127.109 316.873 121.397 307.413 111.817 302.514C110.67 301.928 109.658 303.654 110.807 304.241Z" fill="#1BBBFF"/>
<path d="M79.898 357.458C79.596 361.272 79.15 365.094 79.622 368.911C79.778 370.173 81.524 370.222 81.622 368.911C81.642 368.649 81.661 368.389 81.682 368.127C81.781 366.84 79.781 366.85 79.682 368.127C79.661 368.389 79.642 368.649 79.622 368.911C80.289 368.911 80.955 368.911 81.622 368.911C81.15 365.094 81.596 361.271 81.898 357.458C82 356.172 79.999 356.182 79.898 357.458Z" fill="#1BBBFF"/>
<path d="M134.151 325.568C133.834 329.897 133.674 334.235 133.361 338.564C133.268 339.851 135.269 339.842 135.361 338.564C135.674 334.235 135.834 329.897 136.151 325.568C136.246 324.281 134.245 324.289 134.151 325.568Z" fill="#1BBBFF"/>
<path d="M82.11 369.85C90.725 363.537 100.295 358.89 109.597 353.71C118.202 348.919 125.952 342.522 134.941 338.442C136.114 337.91 135.096 336.187 133.931 336.715C124.956 340.786 117.137 347.123 108.587 351.983C99.321 357.25 89.729 361.799 81.1 368.123C80.071 368.877 81.067 370.614 82.11 369.85Z" fill="#1BBBFF"/>
<path d="M9.60899 321.654C9.16399 325.267 9.23799 328.914 9.57399 332.533C9.69199 333.806 11.693 333.817 11.574 332.533C11.238 328.914 11.163 325.267 11.609 321.654C11.766 320.375 9.76499 320.391 9.60899 321.654Z" fill="#1BBBFF"/>
<path d="M10.447 333.622C22.069 340.34 34.169 346.142 46.09 352.296C52.043 355.368 57.908 358.6 63.647 362.056C66.64 363.858 69.476 365.932 72.596 367.507C75.355 368.901 78.194 369.857 80.772 371.607C80.941 370.986 81.108 370.365 81.277 369.744C81.014 369.723 80.751 369.704 80.487 369.683C79.2 369.584 79.21 371.585 80.487 371.683C80.75 371.704 81.013 371.723 81.277 371.744C82.345 371.826 82.537 370.393 81.782 369.881C76.922 366.581 71.252 364.446 66.231 361.297C60.549 357.733 54.645 354.527 48.71 351.408C36.297 344.884 23.606 338.919 11.457 331.896C10.338 331.249 9.331 332.978 10.447 333.622Z" fill="#1BBBFF"/>
<path d="M41.394 296.681C52.871 299.653 64.072 303.742 76.005 304.41C81.857 304.737 87.669 303.862 93.151 301.831C95.215 301.066 97.191 300.054 99.147 299.052C100.817 298.197 105.51 294.376 107.273 294.584C107.104 293.963 106.937 293.342 106.768 292.721C106.747 292.725 106.726 292.728 106.704 292.732C105.414 292.675 105.419 294.675 106.704 294.732C107.13 294.75 107.395 294.629 107.777 294.449C108.783 293.975 108.143 292.688 107.273 292.585C106.127 292.45 104.684 293.74 103.756 294.249C101.419 295.532 99.097 296.835 96.724 298.051C90.706 301.134 84.516 302.378 77.781 302.452C65.517 302.588 53.634 297.785 41.927 294.755C40.676 294.429 40.146 296.359 41.394 296.681Z" fill="#1BBBFF"/>
<path d="M50.544 274.541C66.035 281.553 87.446 276.876 100.947 267.606C100.543 267.083 100.139 266.559 99.735 266.036C99.453 266.279 99.171 266.522 98.889 266.765C97.91 267.609 99.332 269.017 100.303 268.179C100.585 267.936 100.867 267.693 101.149 267.45C102.007 266.71 100.873 265.237 99.937 265.88C87.101 274.693 66.368 279.52 51.554 272.815C50.388 272.288 49.371 274.01 50.544 274.541Z" fill="#1BBBFF"/>
<path d="M54.899 268.246C56.998 268.419 59.081 268.746 61.18 268.92C62.466 269.027 62.456 267.025 61.18 266.92C59.081 266.746 56.998 266.419 54.899 266.246C53.613 266.14 53.623 268.141 54.899 268.246Z" fill="#1BBBFF"/>
<path d="M57.262 262.277C59.288 262.8 61.347 262.807 63.426 262.758C64.714 262.728 64.717 260.728 63.426 260.758C61.526 260.803 59.647 260.827 57.793 260.349C56.544 260.026 56.014 261.955 57.262 262.277Z" fill="#1BBBFF"/>
<path d="M59.61 258.316C61.446 258.455 63.282 258.595 65.118 258.734C66.405 258.832 66.396 256.831 65.118 256.734C63.282 256.595 61.446 256.455 59.61 256.316C58.323 256.218 58.332 258.219 59.61 258.316Z" fill="#1BBBFF"/>
<path d="M62.132 253.758C63.969 253.897 65.804 254.036 67.641 254.175C68.928 254.273 68.919 252.272 67.641 252.175C65.805 252.036 63.969 251.897 62.132 251.758C60.845 251.661 60.854 253.662 62.132 253.758Z" fill="#1BBBFF"/>
<path d="M64.926 248.232C66.686 248.363 68.43 248.433 70.153 247.979C71.399 247.652 70.87 245.722 69.622 246.051C68.077 246.457 66.503 246.349 64.927 246.232C63.639 246.136 63.648 248.136 64.926 248.232Z" fill="#1BBBFF"/>
<path d="M66.562 243.99C68.124 244.333 69.63 244.584 71.222 244.303C72.491 244.079 71.951 242.153 70.691 242.375C69.478 242.589 68.277 242.321 67.093 242.062C65.837 241.786 65.303 243.713 66.562 243.99Z" fill="#1BBBFF"/>
<path d="M69.213 238.666C70.464 238.762 71.712 238.852 72.965 238.753C74.242 238.652 74.252 236.652 72.965 236.753C71.712 236.852 70.464 236.762 69.213 236.666C67.926 236.568 67.936 238.569 69.213 238.666Z" fill="#1BBBFF"/>
<path d="M72.73 229.272C75.084 224.433 83.522 227.824 86.992 229.63C88.135 230.225 89.146 228.499 88.002 227.903C83.546 225.583 73.984 222.135 71.004 228.261C70.442 229.417 72.166 230.431 72.73 229.272Z" fill="#1BBBFF"/>
<path d="M40.468 315.029C42.165 315.21 43.706 316.034 45.44 315.546C46.68 315.197 46.152 313.268 44.909 313.618C43.489 314.017 41.892 313.18 40.469 313.029C39.186 312.892 39.199 314.894 40.468 315.029Z" fill="#1BBBFF"/>
<path d="M41.876 308.59C43.232 309.134 44.779 309.43 46.242 309.333C47.522 309.248 47.53 307.248 46.242 307.333C44.935 307.419 43.619 307.147 42.407 306.662C41.209 306.182 40.694 308.118 41.876 308.59Z" fill="#1BBBFF"/>
<path d="M43.987 301.627C45.255 302.141 46.585 302.419 47.945 302.538C49.23 302.651 49.219 300.65 47.945 300.538C46.766 300.434 45.614 300.142 44.518 299.699C44.012 299.494 43.42 299.918 43.288 300.397C43.131 300.969 43.482 301.423 43.987 301.627Z" fill="#1BBBFF"/>
<path d="M31.949 318.834C37.833 322.101 43.661 325.406 50.016 327.681C56.133 329.869 62.787 329.824 69.185 330.264C70.473 330.353 70.464 328.352 69.185 328.264C62.867 327.83 56.643 327.657 50.548 325.752C44.336 323.81 38.615 320.248 32.959 317.107C31.83 316.481 30.822 318.208 31.949 318.834Z" fill="#1BBBFF"/>
<path d="M74.415 330.012C75.28 329.867 76.152 329.761 77.017 329.617C77.556 329.528 77.848 328.871 77.716 328.387C77.56 327.821 77.023 327.599 76.486 327.689C75.62 327.832 74.749 327.938 73.884 328.085C73.346 328.176 73.052 328.83 73.185 329.314C73.34 329.879 73.878 330.103 74.415 330.012Z" fill="#1BBBFF"/>
<path d="M80.996 329.326C81.877 329.162 82.721 328.854 83.611 328.732C84.153 328.659 84.44 327.974 84.31 327.503C84.151 326.926 83.619 326.73 83.08 326.805C82.189 326.926 81.346 327.234 80.465 327.399C79.928 327.499 79.631 328.137 79.766 328.629C79.92 329.186 80.461 329.426 80.996 329.326Z" fill="#1BBBFF"/>
<path d="M104.893 322.038C105.654 321.896 106.371 321.612 107.117 321.414C108.363 321.083 107.834 319.154 106.586 319.486C105.84 319.684 105.123 319.967 104.362 320.11C103.825 320.21 103.528 320.848 103.663 321.339C103.816 321.898 104.358 322.138 104.893 322.038Z" fill="#1BBBFF"/>
<path d="M111.034 319.339C112.47 318.933 113.508 317.897 114.606 316.944C115.582 316.097 114.161 314.689 113.192 315.53C112.369 316.244 111.581 317.105 110.503 317.411C109.263 317.762 109.79 319.692 111.034 319.339Z" fill="#1BBBFF"/>
<path d="M85.535 244.784C87.465 249.949 89.428 255.097 90.875 260.422C91.213 261.665 93.143 261.137 92.804 259.891C91.357 254.565 89.394 249.417 87.464 244.253C87.016 243.055 85.083 243.574 85.535 244.784Z" fill="#1BBBFF"/>
<path d="M46.976 292.869C51.025 295.883 56.325 296.639 61.253 296.625C62.543 296.621 62.543 294.621 61.253 294.625C56.643 294.638 51.774 293.961 47.986 291.143C46.95 290.37 45.954 292.108 46.976 292.869Z" fill="#1BBBFF"/>
<path d="M66.211 298.17C67.615 298.453 69.006 298.432 70.425 298.309C71.7 298.199 71.711 296.198 70.425 296.309C69.195 296.415 67.96 296.487 66.742 296.243C65.483 295.989 64.947 297.916 66.211 298.17Z" fill="#1BBBFF"/>
<path d="M204.943 215.588L202.001 335.989L188.501 329.187L189.427 234.722L193.59 216.767H205.142" fill="#FF6E6D"/>
<path d="M137.398 344.106C138.152 343.451 155.157 289.399 158.688 273.061C162.219 256.725 171.187 210.481 171.187 210.481L188.487 213.462C188.487 213.462 164.184 310.744 163.895 317.544C163.607 324.348 156.538 351.938 156.538 351.938L137.504 345.336" fill="#E44D1A"/>
<path d="M194.429 213.658C194.429 213.658 190.211 229.82 188.698 236.256C187.185 242.691 173.278 307.744 171.915 314.137C170.552 320.532 162.936 350.242 162.936 350.242L156.538 351.937C156.538 351.937 163.315 318.959 165.074 310.929C166.837 302.9 174.071 270.389 175.484 266.317C176.896 262.242 185.395 216.57 188.697 212.967L194.429 213.658Z" fill="#F55C29"/>
<path d="M307.068 236.011L304.004 356.738L290.447 350.103L291.338 254.677L295.471 235.767H307.142" fill="#FF6E6D"/>
<path d="M239.281 365.031C240.034 364.365 257.038 309.259 260.57 292.601C264.101 275.947 273.069 228.798 273.069 228.798L290.37 231.838C290.37 231.838 266.067 331.019 265.778 337.953C265.489 344.888 258.42 373.017 258.42 373.017L239.385 366.288" fill="#E44D1A"/>
<path d="M296.312 234.739C296.312 234.739 292.093 250.899 290.579 257.335C289.067 263.773 275.16 328.823 273.797 335.217C272.432 341.612 264.819 371.321 264.819 371.321L258.419 373.018C258.419 373.018 265.195 340.04 266.955 332.01C268.718 323.982 275.952 291.472 277.366 287.395C278.776 283.322 287.276 237.65 290.578 234.046L296.312 234.739Z" fill="#F55C29"/>
<path d="M156.538 164.368L167.456 160.342C167.456 160.342 204.038 167.951 224.646 171.002C245.253 174.054 315.577 184.662 320.411 189.814L312.024 196.032C312.024 196.032 256.774 182.069 229.153 178.45C201.53 174.831 161.909 170.14 156.538 164.368Z" fill="#5C5E5C"/>
<path d="M154.947 207.132L155.601 166.534C155.601 166.534 202.666 177.586 215.514 176.447C228.362 175.309 313.79 196.032 313.79 196.032L315.092 234.631L154.947 207.132Z" fill="#F2E961"/>
<mask id="mask0_703_41" style="mask-type:luminance" maskUnits="userSpaceOnUse" x="154" y="166" width="162" height="69">
<path d="M154.947 207.132L155.601 166.534C155.601 166.534 202.666 177.586 215.514 176.447C228.362 175.309 313.79 196.032 313.79 196.032L315.092 234.631L154.947 207.132Z" fill="white"/>
</mask>
<g mask="url(#mask0_703_41)">
<path d="M189.92 155.877C170.23 167.8 151.348 180.964 132.572 194.269C123.412 200.76 132.171 216.001 141.437 209.436C160.213 196.131 179.094 182.968 198.786 171.044C208.459 165.188 199.637 149.994 189.92 155.877Z" fill="#333333"/>
</g>
<mask id="mask1_703_41" style="mask-type:luminance" maskUnits="userSpaceOnUse" x="154" y="166" width="162" height="69">
<path d="M154.947 207.132L155.601 166.534C155.601 166.534 202.666 177.586 215.514 176.447C228.362 175.309 313.79 196.032 313.79 196.032L315.092 234.631L154.947 207.132Z" fill="white"/>
</mask>
<g mask="url(#mask1_703_41)">
<path d="M246.326 159.906C216.02 174.642 189.63 195.75 162.432 215.359C158.558 218.155 156.687 222.948 159.281 227.377C161.526 231.21 167.407 233.335 171.298 230.529C198.497 210.918 224.885 189.811 255.189 175.074C265.376 170.12 256.466 154.974 246.326 159.906Z" fill="#333333"/>
</g>
<mask id="mask2_703_41" style="mask-type:luminance" maskUnits="userSpaceOnUse" x="154" y="166" width="162" height="69">
<path d="M154.947 207.132L155.601 166.534C155.601 166.534 202.666 177.586 215.514 176.447C228.362 175.309 313.79 196.032 313.79 196.032L315.092 234.631L154.947 207.132Z" fill="white"/>
</mask>
<g mask="url(#mask2_703_41)">
<path d="M313.557 170.166C310.942 165.702 305.914 165.066 301.541 167.015C271.525 180.385 244.161 198.578 217.411 217.494C208.243 223.976 217.004 239.218 226.275 232.661C253.028 213.747 280.39 195.553 310.406 182.184C314.782 180.234 315.775 173.951 313.557 170.166Z" fill="#333333"/>
</g>
<mask id="mask3_703_41" style="mask-type:luminance" maskUnits="userSpaceOnUse" x="154" y="166" width="162" height="69">
<path d="M154.947 207.132L155.601 166.534C155.601 166.534 202.666 177.586 215.514 176.447C228.362 175.309 313.79 196.032 313.79 196.032L315.092 234.631L154.947 207.132Z" fill="white"/>
</mask>
<g mask="url(#mask3_703_41)">
<path d="M351.071 172.466C317.2 190.418 285.124 211.41 253.908 233.609C244.76 240.113 253.52 255.356 262.773 248.775C293.992 226.58 326.066 205.585 359.937 187.634C369.948 182.327 361.072 167.165 351.071 172.466Z" fill="#333333"/>
</g>
<path d="M314.074 237.237L324.101 233.69C324.101 233.69 324.202 203.082 324.101 198.812C324 194.54 323.796 191.199 323.796 191.199L312.692 196.033C312.692 196.033 317.568 233.157 314.074 237.237Z" fill="#5C5E5C"/>
<path d="M170.286 211.369C192.019 214.045 213.816 216.487 235.336 220.607C246.749 222.792 257.847 226.213 269.164 228.819C283.543 232.131 298.06 234.799 312.388 238.339C313.64 238.649 314.171 236.72 312.919 236.411C298.593 232.871 284.086 230.147 269.695 226.89C257.908 224.222 246.379 220.69 234.5 218.416C213.269 214.351 191.728 212.009 170.286 209.369C169.008 209.212 169.023 211.214 170.286 211.369Z" fill="#434040"/>
<path d="M154.528 208.272C159.659 209.463 164.825 210.463 170.02 211.334C171.281 211.545 171.821 209.618 170.551 209.405C165.357 208.535 160.191 207.535 155.059 206.343C153.805 206.052 153.272 207.98 154.528 208.272Z" fill="#434040"/>
<path d="M313.615 238.73C317.58 234.653 316.312 225.851 316.078 220.814C315.689 212.446 314.371 204.107 314.287 195.729C314.274 194.44 312.274 194.439 312.287 195.729C312.359 202.877 313.349 210.02 313.856 217.146C314.219 222.227 316.197 233.208 312.201 237.317C311.301 238.241 312.714 239.656 313.615 238.73Z" fill="#434040"/>
<path d="M155.167 205.428C154.664 191.831 156.336 178.3 156.42 164.711C156.428 163.421 154.428 163.422 154.42 164.711C154.335 178.3 152.663 191.831 153.167 205.428C153.214 206.714 155.215 206.718 155.167 205.428Z" fill="#434040"/>
<path d="M155.783 166.302C181.488 175.767 209.21 175.484 235.847 180.594C248.204 182.965 260.296 185.875 272.773 187.722C285.909 189.666 299.213 191.677 311.519 196.896C312.692 197.394 313.712 195.671 312.529 195.169C301.097 190.321 288.915 188.161 276.702 186.3C263.695 184.319 251.019 181.758 238.164 179.026C210.985 173.249 182.654 174.072 156.314 164.374C155.101 163.927 154.583 165.86 155.783 166.302Z" fill="#434040"/>
<path d="M324.444 233.541C326.68 227.993 325.779 220.785 325.578 214.977C325.304 207.05 324.532 199.131 324.48 191.198C324.471 189.909 322.471 189.908 322.48 191.198C322.526 198.279 323.146 205.356 323.473 212.427C323.766 218.758 324.951 226.968 322.516 233.01C322.034 234.207 323.968 234.722 324.444 233.541Z" fill="#434040"/>
<path d="M166.375 161.006C192.08 170.47 219.803 170.187 246.441 175.298C258.797 177.669 270.889 180.578 283.365 182.424C296.502 184.368 309.806 186.379 322.113 191.598C323.286 192.095 324.306 190.373 323.123 189.871C311.69 185.022 299.508 182.863 287.294 181.002C274.288 179.021 261.612 176.462 248.757 173.729C221.578 167.951 193.246 168.774 166.906 159.077C165.694 158.63 165.176 160.564 166.375 161.006Z" fill="#434040"/>
<path d="M155.467 165.953C159.073 164.276 162.771 162.816 166.449 161.306C167.625 160.823 167.111 158.887 165.918 159.377C162.08 160.952 158.221 162.476 154.458 164.226C153.288 164.77 154.305 166.494 155.467 165.953Z" fill="#434040"/>
<path d="M312.958 196.692C316.236 195.675 318.914 192.4 322.401 192.198C323.683 192.124 323.69 190.123 322.401 190.198C318.538 190.421 315.973 193.662 312.426 194.763C311.2 195.144 311.723 197.076 312.958 196.692Z" fill="#434040"/>
<path d="M313.412 238.886C316.833 237.088 320.465 235.727 323.984 234.139C325.158 233.61 324.14 231.886 322.974 232.412C319.455 234 315.823 235.361 312.402 237.159C311.261 237.759 312.272 239.486 313.412 238.886Z" fill="#434040"/>
<path d="M138.367 345.77C142.805 335.493 145.334 324.628 148.122 313.825C151.133 302.157 155.304 290.854 158.252 279.161C161.242 267.3 164.025 255.161 165.953 243.08C167.687 232.209 167.885 221.206 171.249 210.636C171.641 209.404 169.71 208.88 169.32 210.105C166.145 220.081 165.674 230.44 164.287 240.747C162.659 252.847 159.618 264.99 156.76 276.854C154.064 288.044 150.136 298.818 147.092 309.899C143.873 321.616 141.476 333.558 136.639 344.762C136.135 345.931 137.857 346.951 138.367 345.77Z" fill="#434040"/>
<path d="M187.733 212.702C180.9 233.635 177.849 255.7 172.432 277.022C168.988 290.58 166.91 304.449 163.949 318.113C162.782 323.498 161.437 328.81 160.42 334.227C159.337 340.001 158.329 345.99 155.674 351.287C155.098 352.436 156.823 353.45 157.401 352.297C161.965 343.192 162.69 332.249 165.021 322.43C168.406 308.17 170.531 293.646 173.912 279.384C179.12 257.411 182.649 234.718 189.662 213.234C190.063 212.004 188.132 211.481 187.733 212.702Z" fill="#434040"/>
<path d="M193.465 213.393C190.537 221.684 188.957 230.793 186.929 239.343C183.867 252.254 181.556 265.328 178.287 278.193C175.16 290.5 173.177 303.074 170.614 315.503C169.459 321.103 167.955 326.619 166.878 332.233C165.733 338.201 164.814 344.247 162.072 349.739C161.498 350.889 163.222 351.903 163.799 350.749C168.456 341.422 169.481 329.925 171.734 319.816C174.641 306.775 176.685 293.559 179.767 280.554C182.826 267.645 185.497 254.664 188.43 241.727C189.639 236.393 191.456 231.119 192.45 225.752C193.203 221.686 194.008 217.851 195.393 213.924C195.824 212.705 193.891 212.185 193.465 213.393Z" fill="#434040"/>
<path d="M136.215 347.409C142.713 349.93 149.773 350.238 156.272 352.756C157.476 353.223 157.993 351.288 156.803 350.828C150.305 348.31 143.244 348.001 136.746 345.481C135.542 345.013 135.026 346.948 136.215 347.409Z" fill="#434040"/>
<path d="M188.917 330.62C189.166 313.857 188.847 297.096 188.936 280.332C189.02 264.51 190.478 248.75 190.532 232.943C190.536 231.653 188.536 231.654 188.532 232.943C188.481 248.141 187.099 263.297 186.95 278.508C186.78 295.879 187.175 313.249 186.917 330.619C186.898 331.91 188.898 331.908 188.917 330.62Z" fill="#434040"/>
<path d="M202.97 335.302C203.27 314.962 202.787 294.62 203.071 274.281C203.209 264.429 203.596 254.584 204.31 244.756C204.998 235.279 204.399 225.746 204.952 216.254C205.027 214.965 203.027 214.972 202.952 216.254C202.436 225.096 202.769 233.943 202.463 242.788C202.101 253.293 201.245 263.759 201.07 274.281C200.732 294.62 201.269 314.963 200.969 335.302C200.951 336.592 202.952 336.59 202.97 335.302Z" fill="#434040"/>
<path d="M188.782 331.863C193.462 332.119 196.947 336.27 201.662 336.547C202.951 336.622 202.943 334.622 201.662 334.547C197.019 334.275 193.522 330.122 188.782 329.863C187.493 329.792 187.499 331.792 188.782 331.863Z" fill="#434040"/>
<path d="M156.548 353.198C159.176 352.488 161.521 350.893 164.161 350.27C165.416 349.974 164.884 348.046 163.63 348.342C160.988 348.965 158.646 350.56 156.017 351.27C154.773 351.606 155.302 353.535 156.548 353.198Z" fill="#434040"/>
<path d="M240.247 366.849C244.686 356.572 247.217 345.707 250.004 334.904C253.016 323.236 257.186 311.932 260.134 300.239C263.126 288.369 265.898 276.228 267.841 264.14C269.737 252.353 270.323 240.369 273.963 228.924C274.356 227.692 272.424 227.168 272.035 228.393C268.592 239.216 267.777 250.568 266.191 261.753C264.47 273.882 261.51 286.025 258.642 297.93C255.946 309.12 252.019 319.895 248.975 330.977C245.756 342.694 243.359 354.636 238.52 365.839C238.015 367.01 239.738 368.03 240.247 366.849Z" fill="#434040"/>
<path d="M290.036 231.963C287.054 238.969 286.201 246.36 284.303 253.721C280.671 267.803 278.259 282.169 274.776 296.287C271.273 310.483 268.927 324.907 265.832 339.19C264.665 344.574 263.32 349.886 262.304 355.304C261.22 361.078 260.211 367.067 257.558 372.365C256.982 373.514 258.707 374.528 259.285 373.375C263.636 364.691 263.953 354.654 266.455 345.398C270.279 331.255 272.09 316.572 275.361 302.294C278.605 288.139 281.61 273.927 284.886 259.78C286.098 254.543 288.136 249.273 288.803 243.939C289.303 239.937 290.149 236.766 291.764 232.971C292.261 231.8 290.539 230.78 290.036 231.963Z" fill="#434040"/>
<path d="M295.348 234.473C292.417 242.762 290.838 251.872 288.811 260.42C285.75 273.331 283.438 286.406 280.17 299.271C277.043 311.578 275.06 324.152 272.495 336.581C271.34 342.181 269.836 347.697 268.759 353.31C267.613 359.277 266.695 365.323 263.955 370.815C263.381 371.965 265.106 372.979 265.682 371.825C270.335 362.497 271.363 351.002 273.616 340.894C276.522 327.853 278.569 314.638 281.65 301.632C284.708 288.723 287.379 275.741 290.311 262.804C291.52 257.47 293.334 252.197 294.332 246.83C295.087 242.764 295.889 238.93 297.276 235.004C297.707 233.786 295.775 233.266 295.348 234.473Z" fill="#434040"/>
<path d="M238.097 368.489C244.595 371.007 251.656 371.317 258.154 373.835C259.358 374.302 259.875 372.367 258.685 371.907C252.187 369.389 245.127 369.079 238.628 366.561C237.424 366.094 236.908 368.029 238.097 368.489Z" fill="#434040"/>
<path d="M290.799 351.697C291.047 334.935 290.729 318.175 290.818 301.412C290.902 285.591 292.356 269.831 292.414 254.025C292.419 252.735 290.419 252.736 290.414 254.025C290.358 269.222 288.98 284.378 288.832 299.588C288.662 316.958 289.058 334.327 288.8 351.696C288.78 352.987 290.78 352.985 290.799 351.697Z" fill="#434040"/>
<path d="M304.854 356.381C305.153 336.041 304.669 315.7 304.953 295.361C305.09 285.508 305.478 275.662 306.191 265.835C306.88 256.357 306.281 246.825 306.834 237.334C306.909 236.045 304.908 236.053 304.834 237.334C304.319 246.175 304.653 255.022 304.345 263.866C303.979 274.372 303.127 284.838 302.953 295.361C302.615 315.7 303.153 336.042 302.854 356.381C302.835 357.671 304.835 357.669 304.854 356.381Z" fill="#434040"/>
<path d="M290.662 352.941C295.343 353.197 298.829 357.348 303.545 357.625C304.834 357.7 304.826 355.7 303.545 355.625C298.9 355.353 295.403 351.2 290.662 350.941C289.373 350.87 289.38 352.87 290.662 352.941Z" fill="#434040"/>
<path d="M258.43 374.277C261.058 373.566 263.403 371.971 266.043 371.35C267.299 371.055 266.766 369.127 265.512 369.422C262.869 370.043 260.527 371.638 257.899 372.349C256.655 372.685 257.183 374.615 258.43 374.277Z" fill="#434040"/>
<path d="M194.123 140.573C194.123 140.573 184.663 141.469 183.044 147.709C181.427 153.949 176.666 171.093 190.689 175.153C204.71 179.213 205.556 162.113 205.556 162.113C205.556 162.113 206.49 142.555 194.123 140.573Z" fill="#F6FEFF"/>
<path d="M209.991 156.088C209.901 155.637 209.619 155.4 209.294 155.306C209.251 155.023 209.187 154.74 209.129 154.457C209.127 154.427 209.136 154.399 209.13 154.369C209.025 153.746 208.902 153.151 208.774 152.563C209.298 152.253 209.65 151.567 209.299 150.937C208.357 149.241 207.188 147.839 205.907 146.518C204.925 145.203 203.926 143.898 202.811 142.676C202.089 141.883 201.121 142.458 200.919 143.264C200.477 143.673 200.307 144.365 200.869 144.906C203.371 147.313 204.777 150.268 206.136 153.341C206.481 155.495 206.714 157.704 206.672 159.86C206.424 160.631 206.059 161.386 205.558 162.114C205.046 162.856 205.559 163.567 206.239 163.763C206.04 164.679 205.763 165.567 205.401 166.423C204.297 168.138 203.011 169.7 201.729 171.333C200.8 172.518 202.201 173.958 203.385 172.99C204.84 171.799 205.937 170.445 206.771 168.98C206.858 168.91 206.941 168.841 207.007 168.741C207.2 168.443 207.374 168.145 207.543 167.848C207.975 167.95 208.443 167.818 208.725 167.308C210.75 163.649 210.799 160.122 209.991 156.088Z" fill="#F2E961"/>
<path d="M182.905 145.96C178.041 154.386 176.895 165.927 184.443 173.326C190.431 179.196 199.166 175.517 203.543 169.856C209.129 162.632 207.526 152.228 202.671 145.158C200.512 142.014 197.276 139.353 193.432 138.914C189.196 138.431 185.404 142.985 183.062 145.758C182.235 146.737 183.643 148.159 184.476 147.172C186.526 144.745 188.62 142.331 191.671 141.159C195.792 139.576 199.783 144.477 201.746 147.337C205.81 153.254 206.076 161.237 202.729 167.476C199.151 174.145 190.649 176.61 184.992 171.064C178.544 164.743 180.711 153.763 184.632 146.97C185.278 145.851 183.549 144.844 182.905 145.96Z" fill="#434040"/>
<path d="M191.662 176.774C202.704 177.169 211.561 171.491 212.859 160.17C214.094 149.385 205.479 137.844 193.974 138.912C192.701 139.03 192.689 141.031 193.974 140.912C204.912 139.897 211.295 150.458 210.859 160.17C210.396 170.454 200.868 175.103 191.662 174.774C190.372 174.728 190.377 176.728 191.662 176.774Z" fill="#434040"/>
<path d="M187.036 159.112C188.34 161.11 189.834 162.977 191.038 165.04C191.687 166.153 193.416 165.146 192.765 164.03C191.561 161.967 190.067 160.1 188.763 158.102C188.06 157.027 186.328 158.028 187.036 159.112Z" fill="#434040"/>
<path d="M188.97 151.606C191.104 154.296 192.333 157.692 195.047 159.906C196.037 160.714 197.461 159.308 196.461 158.492C193.777 156.302 192.505 152.865 190.384 150.192C189.583 149.182 188.178 150.607 188.97 151.606Z" fill="#434040"/>
<path d="M193.416 151.162C194.207 152.078 195.067 152.943 195.779 153.925C196.098 154.365 196.641 154.58 197.147 154.283C197.583 154.028 197.827 153.357 197.505 152.915C196.691 151.793 195.735 150.795 194.829 149.748C193.986 148.77 192.578 150.191 193.416 151.162Z" fill="#434040"/>
<path d="M284.294 156.968C284.294 156.968 274.833 157.863 273.217 164.103C271.598 170.343 266.838 187.487 280.862 191.546C294.883 195.608 295.728 178.507 295.728 178.507C295.728 178.507 296.66 158.949 284.294 156.968Z" fill="#F6FEFF"/>
<path d="M300.543 172.996C300.506 172.769 300.397 172.608 300.265 172.475C300.26 172.457 300.264 172.442 300.258 172.423C299.711 170.795 299.134 169.194 298.508 167.609C298.146 164.733 297.142 162.067 295.07 159.977C294.715 159.62 294.087 159.507 293.65 159.794C293.559 159.853 293.469 159.913 293.38 159.973C293.293 160.031 293.219 160.096 293.155 160.162C292.91 160.097 292.659 160.126 292.429 160.223C292.171 159.911 291.92 159.597 291.647 159.296C290.729 158.286 289.175 159.576 289.807 160.715C290.89 162.66 292.07 164.359 293.431 166.109C293.589 166.315 293.772 166.413 293.958 166.463C294.262 166.965 294.566 167.469 294.862 167.978C295.575 169.92 296.042 171.919 296.172 173.924C295.817 177.016 294.841 180.115 293.987 183.023C293.746 183.847 294.406 184.44 295.092 184.474C294.367 185.364 293.684 186.256 293.038 187.203C292.975 187.261 292.922 187.324 292.855 187.378C292.617 187.576 292.521 187.802 292.49 188.03C292.456 188.085 292.42 188.132 292.384 188.188C291.865 189.024 292.731 190.263 293.708 189.911C297.305 188.61 299.103 185.534 299.951 182.035C301.347 179.188 301.074 176.14 300.543 172.996ZM297.253 183.133C297.046 183.034 296.825 183.002 296.606 183.038C296.885 182.505 297.133 181.968 297.349 181.426C297.36 181.681 297.37 181.936 297.385 182.192C297.393 182.32 297.423 182.438 297.466 182.548C297.403 182.747 297.327 182.938 297.253 183.133Z" fill="#F2E961"/>
<path d="M273.076 163.526C268.213 171.953 267.065 183.493 274.614 190.893C280.601 196.762 289.336 193.083 293.713 187.423C299.3 180.199 297.699 169.794 292.844 162.724C290.685 159.58 287.447 156.919 283.603 156.48C279.367 155.997 275.575 160.551 273.233 163.324C272.407 164.303 273.814 165.725 274.647 164.738C276.697 162.311 278.791 159.897 281.843 158.725C285.963 157.142 289.956 162.043 291.919 164.903C295.982 170.82 296.247 178.804 292.899 185.043C289.321 191.711 280.82 194.176 275.163 188.631C268.714 182.31 270.882 171.33 274.803 164.536C275.449 163.416 273.72 162.41 273.076 163.526Z" fill="#434040"/>
<path d="M281.835 194.34C292.875 194.736 301.734 189.054 303.03 177.736C304.265 166.948 295.649 155.414 284.144 156.477C282.871 156.595 282.86 158.596 284.144 158.477C295.083 157.467 301.465 168.02 301.03 177.736C300.569 188.017 291.04 192.671 281.835 192.34C280.545 192.293 280.549 194.293 281.835 194.34Z" fill="#434040"/>
<path d="M275.823 180.655C276.906 181.898 277.777 183.298 278.779 184.604C279.552 185.612 281.292 184.618 280.506 183.594C279.401 182.154 278.433 180.613 277.237 179.241C276.388 178.267 274.98 179.687 275.823 180.655Z" fill="#434040"/>
<path d="M277 170.672C279.762 174.31 282.487 177.972 285.002 181.788C285.708 182.859 287.44 181.859 286.729 180.778C284.214 176.963 281.49 173.301 278.727 169.662C277.958 168.649 276.22 169.644 277 170.672Z" fill="#434040"/>
<path d="M286.345 171.318C287.056 172.173 287.761 173.029 288.411 173.932C288.728 174.373 289.274 174.586 289.779 174.29C290.215 174.035 290.457 173.365 290.137 172.922C289.387 171.882 288.577 170.889 287.758 169.904C287.409 169.484 286.702 169.545 286.344 169.904C285.933 170.316 285.996 170.9 286.345 171.318Z" fill="#434040"/>
</svg>
